/* XPM */
static char * bottom_active_xpm[] = {
"1 17 14 1",
" 	c None",
".	c #141515",
"+	c #112F35",
"@	c #12BAFF",
"#	c #170F1D",
"$	c #151B1F",
"%	c #141414",
"&	c #151616",
"*	c #05090C",
"=	c #7F8587",
"-	c #1C2F38",
";	c #4D6773",
">	c #100D0B",
",	c #111110",
".",
".",
".",
".",
".",
"+",
"@",
"#",
"$",
"%",
"&",
"*",
"=",
"-",
";",
">",
","};
