/* XPM */
static char * close_prelight_xpm[] = {
"24 14 137 2",
"  	c None",
". 	c #471717",
"+ 	c #4A1818",
"@ 	c #4C1919",
"# 	c #4D1919",
"$ 	c #4F1A1A",
"% 	c #4F1919",
"& 	c #4B1919",
"* 	c #571D1D",
"= 	c #551C1C",
"- 	c #591E1E",
"; 	c #591D1D",
"> 	c #581D1D",
", 	c #581C1C",
"' 	c #5B1D1D",
") 	c #5C1E1E",
"! 	c #541C1C",
"~ 	c #561D1D",
"{ 	c #561C1C",
"] 	c #501A1A",
"^ 	c #4D1A1A",
"/ 	c #521B1B",
"( 	c #531B1B",
"_ 	c #551B1B",
": 	c #5D1E1E",
"< 	c #5A1D1D",
"[ 	c #5A1E1E",
"} 	c #5E1F1F",
"| 	c #5B1E1E",
"1 	c #541B1B",
"2 	c #4E1919",
"3 	c #501B1B",
"4 	c #7A2828",
"5 	c #BB4040",
"6 	c #C14141",
"7 	c #C84F4F",
"8 	c #C95353",
"9 	c #CD5959",
"0 	c #CB5656",
"a 	c #CF6464",
"b 	c #CF6565",
"c 	c #CB5757",
"d 	c #CA5555",
"e 	c #CB5858",
"f 	c #C74F4F",
"g 	c #C44646",
"h 	c #C44D4D",
"i 	c #C04141",
"j 	c #BA3E3E",
"k 	c #A93838",
"l 	c #A43636",
"m 	c #882D2D",
"n 	c #612020",
"o 	c #6E2525",
"p 	c #662222",
"q 	c #6A2323",
"r 	c #742727",
"s 	c #732626",
"t 	c #722626",
"u 	c #682222",
"v 	c #6C2424",
"w 	c #5D1F1F",
"x 	c #571C1C",
"y 	c #5F2020",
"z 	c #712525",
"A 	c #6E2424",
"B 	c #692323",
"C 	c #762727",
"D 	c #772828",
"E 	c #792828",
"F 	c #6F2525",
"G 	c #702525",
"H 	c #B13B3B",
"I 	c #AE3939",
"J 	c #BB3E3E",
"K 	c #C44A4A",
"L 	c #C75656",
"M 	c #C65252",
"N 	c #C65454",
"O 	c #C44F4F",
"P 	c #CA5E5E",
"Q 	c #C44E4E",
"R 	c #C55252",
"S 	c #C75555",
"T 	c #C24848",
"U 	c #BF4040",
"V 	c #BC3F3F",
"W 	c #AD3939",
"X 	c #9B3333",
"Y 	c #A33636",
"Z 	c #622020",
"` 	c #632020",
" .	c #602020",
"..	c #672222",
"+.	c #652121",
"@.	c #752727",
"#.	c #752626",
"$.	c #5F1F1F",
"%.	c #732525",
"&.	c #8A2C2C",
"*.	c #7A2626",
"=.	c #7C2626",
"-.	c #762424",
";.	c #8B2B2B",
">.	c #963030",
",.	c #8F2C2C",
"'.	c #732323",
").	c #902E2E",
"!.	c #792626",
"~.	c #7F2828",
"{.	c #702424",
"].	c #6D2424",
"^.	c #632121",
"/.	c #642121",
"(.	c #7F2C2C",
"_.	c #853232",
":.	c #833535",
"<.	c #883636",
"[.	c #A44141",
"}.	c #9B3D3D",
"|.	c #983C3C",
"1.	c #973C3C",
"2.	c #963939",
"3.	c #973D3D",
"4.	c #993D3D",
"5.	c #9B3E3E",
"6.	c #A53E3E",
"7.	c #8C3838",
"8.	c #843333",
"9.	c #842F2F",
"0.	c #7B2B2B",
"a.	c #812B2B",
"b.	c #531C1C",
"c.	c #511A1A",
"d.	c #5C1F1F",
"e.	c #511B1B",
"f.	c #4B1818",
". . . . . . . . . . . . . . . . . . . . . + @ @ ",
"@ @ # # # @ @ @ @ $ % @ @ @ @ # # # # & & @ @ @ ",
"$ * = = = - ; > , ; > ' ) ; - - = ! = ~ { ] ] ^ ",
"] / ( ; = _ : ) < ; < [ { } < = { | 1 $ / 2 3 ] ",
"4 5 6 7 8 9 0 a b b b c d d e f g h i j k l m - ",
"[ n ) } o p q r s t t s r r u v t n ; w > x | $ ",
"> } : y z v v A B C D u E v v F n p | | > * ( # ",
"G H I J K L M N O P Q P Q R S T U V W X Y m C [ ",
"= y Z `  ...+.Z y @.#.$.Z Z p u y  .Z w x > ~ ] ",
"> G %.&.*.=.-.;.;.>.>.,.,.'.).!.~.{.q ].^./.| / ",
"} t (._.:.<.[.}.|.1.2.3.4.5.6.7.8.9.0.a.v +.n b.",
"c.> ( = * ; [ | | [ [ [ | d.| { * > > = / ! ( # ",
"@ e.$ ] c./ / ! ! ( ( ! ! / / * 1 # 2 e.] $ # @ ",
"@ $ c.( c.b.= ! ! ! ! ! ! ! ! $ ] ] % 2 $ # @ f."};
