/* XPM */
static char * hide_prelight_xpm[] = {
"24 14 145 2",
"  	c None",
". 	c #504404",
"+ 	c #534704",
"@ 	c #574B04",
"# 	c #564A04",
"$ 	c #5A4D04",
"% 	c #584B04",
"& 	c #554904",
"* 	c #584C04",
"= 	c #655705",
"- 	c #625405",
"; 	c #615405",
"> 	c #605305",
", 	c #675905",
"' 	c #5F5205",
") 	c #625505",
"! 	c #635505",
"~ 	c #594D04",
"{ 	c #5C4F04",
"] 	c #5E5105",
"^ 	c #615305",
"/ 	c #665804",
"( 	c #645604",
"_ 	c #645605",
": 	c #685905",
"< 	c #594D05",
"[ 	c #594C04",
"} 	c #5B4E05",
"| 	c #847207",
"1 	c #CAAE0B",
"2 	c #D2B40B",
"3 	c #EAC90E",
"4 	c #ECCC11",
"5 	c #F5D417",
"6 	c #F4D313",
"7 	c #F5D72D",
"8 	c #F5D82E",
"9 	c #F5D82F",
"0 	c #F4D315",
"a 	c #F4D111",
"b 	c #F4D212",
"c 	c #F4D314",
"d 	c #EBCA0D",
"e 	c #DABB0C",
"f 	c #E8C70C",
"g 	c #CFB20B",
"h 	c #C8AC0B",
"i 	c #B49B0A",
"j 	c #B19809",
"k 	c #937F08",
"l 	c #6D5E06",
"m 	c #6A5C06",
"n 	c #7A6906",
"o 	c #716206",
"p 	c #746406",
"q 	c #7E6C07",
"r 	c #7D6C07",
"s 	c #7C6B06",
"t 	c #7E6D07",
"u 	c #726306",
"v 	c #786706",
"w 	c #6C5E06",
"x 	c #695B05",
"y 	c #5B4E04",
"z 	c #695A05",
"A 	c #6B5C05",
"B 	c #7D6B06",
"C 	c #776606",
"D 	c #796806",
"E 	c #806E06",
"F 	c #816E06",
"G 	c #706106",
"H 	c #847107",
"I 	c #776706",
"J 	c #6C5D05",
"K 	c #716106",
"L 	c #665805",
"M 	c #7C6A06",
"N 	c #BFA50A",
"O 	c #BBA10A",
"P 	c #C7AC0A",
"Q 	c #E1C20C",
"R 	c #F4D211",
"S 	c #EECD0D",
"T 	c #EDCC10",
"U 	c #EAC90D",
"V 	c #F3D421",
"W 	c #EAC90C",
"X 	c #ECCB0D",
"Y 	c #DEBF0C",
"Z 	c #CEB10B",
"` 	c #CBAF0B",
" .	c #A79009",
"..	c #AF9609",
"+.	c #958007",
"@.	c #827007",
"#.	c #6A5B05",
"$.	c #6E5F06",
"%.	c #6F6006",
"&.	c #6C5C05",
"*.	c #706006",
"=.	c #6D5E05",
"-.	c #7F6D06",
";.	c #6E5E05",
">.	c #6D5D05",
",.	c #7B6A06",
"'.	c #937E07",
").	c #887403",
"!.	c #837004",
"~.	c #7E6C03",
"{.	c #958004",
"].	c #A08905",
"^.	c #A28B06",
"/.	c #978104",
"(.	c #7B6A03",
"_.	c #998306",
":.	c #877303",
"<.	c #8A7605",
"[.	c #756406",
"}.	c #6F6005",
"|.	c #5C4F05",
"1.	c #7D6C06",
"2.	c #8E7A07",
"3.	c #97820B",
"4.	c #917F16",
"5.	c #998614",
"6.	c #B69E17",
"7.	c #AD9716",
"8.	c #AB9516",
"9.	c #AB9310",
"0.	c #B69F12",
"a.	c #9C8816",
"b.	c #948010",
"c.	c #968108",
"d.	c #8A7707",
"e.	c #6C5D06",
"f.	c #5D5005",
"g.	c #5B4F04",
"h.	c #635605",
"i.	c #665705",
"j.	c #5A4E04",
"k.	c #5D5004",
"l.	c #584B05",
"m.	c #5A4D05",
"n.	c #5A4E05",
". . . . . . . . . . . . . . . . . . . . . + @ @ ",
"@ # @ @ @ @ @ @ @ $ $ @ @ @ @ @ % @ @ # & @ @ # ",
"* = - ; > = = = = , = , , = = = ' - - ) ! ~ $ * ",
"{ ] ^ ) ^ ; , / ( ( ( _ _ : = ^ ; = ' < > [ } $ ",
"| 1 2 3 4 5 6 7 8 9 9 0 a b c d e f g h i j k ! ",
", l , m n o p q r s s r q t u v s w _ x ! _ , y ",
"= z x A B C C D o E F G H I C D J K L L _ - ' * ",
"M N O P Q R S T U V W V W X R Y Z ` O  ...+.@.! ",
"! #.$.%.&.%.*.=.#.-.F z ;.=.o %.#.>.=., _ = - y ",
"! ,.,.'.).!.~.{.{.].^././.(._.:.<.v [.v $.}.L |.",
"#.1.2.3.4.5.6.7.8.8.9.8.8.7.0.a.b.c.d.2.v K e.f.",
"g.! ^ ; h.= = L = i.= = = z : ; ! _ = - f.> > @ ",
"& g.y j.} ] ] ' ' k.k.' ' ] ] ^ ] % l.f.j.$ @ # ",
"@ % { ] k.' ; > > > > > > > > m.n.f.[ @ [ % @ & "};
