/* XPM */
static char * hide_inactive_xpm[] = {
"24 14 256 2",
"  	c None",
". 	c #111212",
"+ 	c #111213",
"@ 	c #131515",
"# 	c #141515",
"$ 	c #141616",
"% 	c #151515",
"& 	c #161819",
"* 	c #151819",
"= 	c #141514",
"- 	c #13181D",
"; 	c #142027",
"> 	c #141D24",
", 	c #141D23",
"' 	c #141F26",
") 	c #11232D",
"! 	c #12232D",
"~ 	c #11222B",
"{ 	c #11222A",
"] 	c #11232A",
"^ 	c #11222E",
"/ 	c #122431",
"( 	c #122533",
"_ 	c #12232C",
": 	c #11242E",
"< 	c #141E25",
"[ 	c #141D22",
"} 	c #141F27",
"| 	c #161E26",
"1 	c #14181D",
"2 	c #12191E",
"3 	c #13171B",
"4 	c #151A1F",
"5 	c #111D27",
"6 	c #111C27",
"7 	c #132234",
"8 	c #131E35",
"9 	c #131D33",
"0 	c #122439",
"a 	c #11253A",
"b 	c #122339",
"c 	c #112238",
"d 	c #112336",
"e 	c #122338",
"f 	c #131D30",
"g 	c #12253A",
"h 	c #142034",
"i 	c #131F34",
"j 	c #121E33",
"k 	c #122238",
"l 	c #121C27",
"m 	c #121A22",
"n 	c #111D24",
"o 	c #14191D",
"p 	c #14181B",
"q 	c #12415C",
"r 	c #1281B3",
"s 	c #0288C0",
"t 	c #1192D8",
"u 	c #049BDB",
"v 	c #0AA2E2",
"w 	c #099EDD",
"x 	c #0EAAF1",
"y 	c #0EAAF2",
"z 	c #0FAAF2",
"A 	c #10AAF1",
"B 	c #099ED6",
"C 	c #099DD6",
"D 	c #089EDD",
"E 	c #099FE0",
"F 	c #0398D7",
"G 	c #128BD2",
"H 	c #168EDA",
"I 	c #0287C2",
"J 	c #167DAA",
"K 	c #176BA1",
"L 	c #166988",
"M 	c #124E6D",
"N 	c #112333",
"O 	c #122327",
"P 	c #112941",
"Q 	c #112441",
"R 	c #132447",
"S 	c #16354C",
"T 	c #112F4F",
"U 	c #103051",
"V 	c #103A67",
"W 	c #123865",
"X 	c #123863",
"Y 	c #113B64",
"Z 	c #113A65",
"` 	c #102F4E",
" .	c #133155",
"..	c #15365E",
"+.	c #142847",
"@.	c #11223E",
"#.	c #122442",
"$.	c #0F2132",
"%.	c #111F36",
"&.	c #11242A",
"*.	c #13191A",
"=.	c #122226",
"-.	c #0F2642",
";.	c #142443",
">.	c #162447",
",.	c #13394F",
"'.	c #103355",
").	c #103457",
"!.	c #11314F",
"~.	c #113C6B",
"{.	c #123C6B",
"].	c #10304F",
"^.	c #103F6F",
"/.	c #103354",
"(.	c #11365B",
"_.	c #162647",
":.	c #152B4E",
"<.	c #13233D",
"[.	c #0F2539",
"}.	c #102232",
"|.	c #13212A",
"1.	c #101C28",
"2.	c #13171A",
"3.	c #113756",
"4.	c #1C7499",
"5.	c #0077AB",
"6.	c #0C80B9",
"7.	c #0092CC",
"8.	c #099CD3",
"9.	c #0899D0",
"0.	c #0795C8",
"a.	c #0DA3E4",
"b.	c #0894C8",
"c.	c #0797CD",
"d.	c #079CCE",
"e.	c #018FCB",
"f.	c #1680C5",
"g.	c #0784BB",
"h.	c #0075A7",
"i.	c #0D60A1",
"j.	c #136985",
"k.	c #134D78",
"l.	c #123C61",
"m.	c #112330",
"n.	c #102029",
"o.	c #11283E",
"p.	c #0F2B3C",
"q.	c #132A46",
"r.	c #122842",
"s.	c #132D4B",
"t.	c #132B48",
"u.	c #132947",
"v.	c #122844",
"w.	c #103B5F",
"x.	c #113B60",
"y.	c #132642",
"z.	c #132744",
"A.	c #122E4E",
"B.	c #122F4E",
"C.	c #12273F",
"D.	c #102A40",
"E.	c #112739",
"F.	c #122134",
"G.	c #12202E",
"H.	c #121F26",
"I.	c #13191D",
"J.	c #133656",
"K.	c #13386C",
"L.	c #1B4D6C",
"M.	c #143D70",
"N.	c #104170",
"O.	c #14396B",
"P.	c #025378",
"Q.	c #015378",
"R.	c #045D86",
"S.	c #035E87",
"T.	c #025677",
"U.	c #025678",
"V.	c #163667",
"W.	c #01577C",
"X.	c #143C70",
"Y.	c #154279",
"Z.	c #123561",
"`.	c #132F55",
" +	c #16334E",
".+	c #112B4D",
"++	c #122B44",
"@+	c #0F243D",
"#+	c #121C1F",
"$+	c #112835",
"%+	c #11385B",
"&+	c #134663",
"*+	c #0F5072",
"=+	c #115082",
"-+	c #11538F",
";+	c #196F99",
">+	c #1463A5",
",+	c #1461A3",
"'+	c #1360A1",
")+	c #135E9D",
"!+	c #1361A2",
"~+	c #1362A3",
"{+	c #1364A5",
"]+	c #1A6E93",
"^+	c #115792",
"/+	c #114E7D",
"(+	c #134C70",
"_+	c #11416C",
":+	c #104964",
"<+	c #103358",
"[+	c #122C47",
"}+	c #102A37",
"|+	c #121D26",
"1+	c #141A1F",
"2+	c #111E25",
"3+	c #121F29",
"4+	c #11212D",
"5+	c #11222F",
"6+	c #112339",
"7+	c #122236",
"8+	c #122438",
"9+	c #122335",
"0+	c #122334",
"a+	c #122336",
"b+	c #12223A",
"c+	c #111F29",
"d+	c #112232",
"e+	c #112229",
"f+	c #111F28",
"g+	c #131C21",
"h+	c #161D22",
"i+	c #131618",
"j+	c #14191E",
"k+	c #13191E",
"l+	c #131A1F",
"m+	c #141C22",
"n+	c #141C1F",
"o+	c #131E25",
"p+	c #131D24",
"q+	c #131E26",
"r+	c #141B1F",
"s+	c #141C21",
"t+	c #132028",
"u+	c #1D1B1B",
"v+	c #141719",
"w+	c #14191B",
"x+	c #141A1E",
"y+	c #131518",
"z+	c #141617",
"A+	c #141B20",
"B+	c #141C23",
"C+	c #121A1F",
"D+	c #13181C",
"E+	c #13181B",
"F+	c #131619",
"G+	c #141516",
". . . . . . . . . + + . . . . . . . . . . @ # # ",
"$ # $ $ $ % % % % & * % % % % % $ $ $ # # # # = ",
"- ; > , ' ) ! ~ { ] ^ / ( _ ) : < [ > } | 1 2 3 ",
"4 5 6 7 8 9 0 a b c d e f g h i j k l m n 2 o p ",
"q r s t u v w x y z A B C D E F G H I J K L M N ",
"O P Q R S T U V V W X Y Z V `  ...+.@.#.$.%.&.*.",
"=.-.;.>.,.'.'.).!.~.{.].^./.'.(._.:.<.[.}.|.1.2.",
"3.4.5.6.7.8.9.9.0.a.b.a.0.c.d.e.f.g.h.i.j.k.l.m.",
"n.o.p.q.r.s.t.u.v.w.x.y.z.u.A.B.C.v.D.E.F.G.H.I.",
"$.J.K.L.M.N.O.P.Q.R.S.T.U.V.W.X.Y.Z.`. +.+++@+#+",
"$+%+&+*+=+-+;+>+,+'+)+!+~+{+]+^+/+(+_+:+<+[+}+|+",
"1+{ 2+3+4+5+6+7+8+9+0+a+0 0 b+c+4+d+e+f+g+[ h+i+",
"i+j+I.k+l+m+n+o+o+p+p+o+q+r+s+t+u+v+w+x+o - y+z+",
"y+I.A+s+1+B+> m+m+m+m+m+m+m+m+I.C+1+D+E+D+F+i+G+"};
