/* XPM */
static char * left_active_xpm[] = {
"17 1 9 1",
" 	c None",
".	c #141514",
"+	c #050200",
"@	c #315F6F",
"#	c #2BBAFF",
"$	c #3D86CC",
"%	c #353E3E",
"&	c #0F1111",
"*	c #141515",
".+@#$%&**********"};
