/* XPM */
static char * maximize_prelight_xpm[] = {
"24 14 130 2",
"  	c None",
". 	c #0E2C1E",
"+ 	c #0F2E1F",
"@ 	c #103020",
"# 	c #102F20",
"$ 	c #113222",
"% 	c #102F1F",
"& 	c #103121",
"* 	c #133927",
"= 	c #123826",
"- 	c #123725",
"; 	c #123625",
"> 	c #133926",
", 	c #133A28",
"' 	c #143A28",
") 	c #133826",
"! 	c #123624",
"~ 	c #103221",
"{ 	c #113322",
"] 	c #123524",
"^ 	c #123825",
"/ 	c #143C28",
"( 	c #133A27",
"_ 	c #103222",
": 	c #113423",
"< 	c #194E35",
"[ 	c #297D55",
"} 	c #2A8058",
"| 	c #319364",
"1 	c #329666",
"2 	c #349E6C",
"3 	c #339C6A",
"4 	c #38AC74",
"5 	c #38AC75",
"6 	c #39AD75",
"7 	c #339D6B",
"8 	c #329A68",
"9 	c #339B69",
"0 	c #319263",
"a 	c #2D875D",
"b 	c #308F62",
"c 	c #2A8057",
"d 	c #287B54",
"e 	c #256E4B",
"f 	c #246C49",
"g 	c #1D583C",
"h 	c #123927",
"i 	c #143E2A",
"j 	c #133C29",
"k 	c #174831",
"l 	c #16422D",
"m 	c #17442F",
"n 	c #184B33",
"o 	c #184A33",
"p 	c #174932",
"q 	c #16432E",
"r 	c #174630",
"s 	c #184932",
"t 	c #143E2B",
"u 	c #133B29",
"v 	c #143B28",
"w 	c #143C29",
"x 	c #184731",
"y 	c #16422E",
"z 	c #184C34",
"A 	c #194F36",
"B 	c #143D2A",
"C 	c #15412D",
"D 	c #133725",
"E 	c #277550",
"F 	c #26734E",
"G 	c #287A53",
"H 	c #2F8D60",
"I 	c #309364",
"J 	c #319566",
"K 	c #309163",
"L 	c #36A36F",
"M 	c #309062",
"N 	c #309264",
"O 	c #329A69",
"P 	c #2E8A5E",
"Q 	c #297E56",
"R 	c #26724E",
"S 	c #226645",
"T 	c #236A48",
"U 	c #1D5A3D",
"V 	c #1A4D35",
"W 	c #133726",
"X 	c #143F2B",
"Y 	c #153F2A",
"Z 	c #16412D",
"` 	c #15402C",
" .	c #143D29",
"..	c #153D29",
"+.	c #133825",
"@.	c #184931",
"#.	c #1A4D34",
"$.	c #174931",
"%.	c #1D573B",
"&.	c #1F5E40",
"*.	c #206041",
"=.	c #174730",
"-.	c #1E5B3E",
";.	c #1A5037",
">.	c #17442E",
",.	c #164630",
"'.	c #113424",
").	c #184A32",
"!.	c #1C553A",
"~.	c #1F5D3F",
"{.	c #205F42",
"].	c #206444",
"^.	c #277751",
"/.	c #25714D",
"(.	c #24704C",
"_.	c #246F4C",
":.	c #236C49",
"<.	c #27754F",
"[.	c #226646",
"}.	c #1D5B3E",
"|.	c #1B5238",
"1.	c #1B5439",
"2.	c #17452F",
"3.	c #16412C",
"4.	c #113524",
"5.	c #143A27",
"6.	c #133B28",
"7.	c #103120",
"8.	c #123523",
"9.	c #0F2F1F",
". . . . . . . . . . . . . . . . . . . . . + @ @ ",
"@ # @ @ @ @ @ @ @ $ $ @ @ @ @ @ @ @ @ # % @ @ @ ",
"& * = - ; > * * * , * ' ' ) > * ! = = ) ) ~ ~ & ",
"{ ] ; ^ ! ; / ( ) ) ) ) ) / * ; - * ] _ ! & : $ ",
"< [ } | 1 2 3 4 5 6 6 7 8 9 7 0 a b c d e f g h ",
", i , j k l m n o p p o n n q r s t ) u ) ) , { ",
"* / v w s r r x y z z y A r r x B C ( ( > D ] & ",
"k E F G H 8 I J K L K L M N O P Q [ R S T U V * ",
"W w t X Y Z ` t  .n z  .t t C Z ..B t v ) * ^ { ",
"+.@.s g < #.$.%.%.&.*.U U =.-.< ;.=.>.,.` ` ( '.",
" .).!.~.{.].^./.(._.:.(.(./.<.[.&.}.|.1.2.3.i 4.",
"{ W ; - ) ) ( * 5.( ( ( ( 6., ; ) ) > D : - ; @ ",
"# { { $ { ] ] ! ! : : ! ! ] ] - ] 7.& : { & @ @ ",
"@ @ { 8.: ! ^ - - - - - - - - { { : & @ & @ @ 9."};
