/* XPM */
static char * right_inactive_xpm[] = {
"17 1 9 1",
" 	c None",
".	c #141515",
"+	c #0F1111",
"@	c #353E3E",
"#	c #3D86CC",
"$	c #2BBAFF",
"%	c #315F6F",
"&	c #050200",
"*	c #141514",
"..........+@#$%&*"};
