/* XPM */
static char * title_1_active_xpm[] = {
"1 28 10 1",
" 	c None",
".	c #0F0F0E",
"+	c #23201F",
"@	c #221F1E",
"#	c #182932",
"$	c #676769",
"%	c #0C0D0D",
"&	c #121313",
"*	c #111212",
"=	c #141515",
".",
"+",
"@",
"#",
"$",
"%",
"&",
"&",
"&",
"&",
"&",
"*",
"=",
"=",
"=",
"=",
"=",
"=",
"=",
"=",
"=",
"=",
"=",
"=",
"=",
"=",
"=",
"="};
