/* XPM */
static char * title_3_active_xpm[] = {
"1 28 14 1",
" 	c None",
".	c #13100E",
"+	c #172935",
"@	c #272525",
"#	c #282F31",
"$	c #7E8182",
"%	c #0A0A09",
"&	c #141515",
"*	c #161311",
"=	c #232A2C",
"-	c #132535",
";	c #0D9CE1",
">	c #12253B",
",	c #13161A",
".",
"+",
"@",
"#",
"$",
"%",
"&",
"&",
"&",
"&",
"&",
"&",
"*",
"=",
"-",
";",
">",
",",
"&",
"&",
"&",
"&",
"&",
"&",
"&",
"&",
"&",
"&"};
