/* XPM */
static char * title_4_inactive_xpm[] = {
"44 29 269 2",
"  	c None",
". 	c #101519",
"+ 	c #101418",
"@ 	c #10161A",
"# 	c #131C1F",
"$ 	c #121A1D",
"% 	c #11191D",
"& 	c #11191C",
"* 	c #12191C",
"= 	c #17262D",
"- 	c #11181B",
"; 	c #111A1C",
"> 	c #111B1F",
", 	c #121B1F",
"' 	c #111A1F",
") 	c #111A1E",
"! 	c #121B1E",
"~ 	c #121A1E",
"{ 	c #1C1C1F",
"] 	c #0F1A1E",
"^ 	c #1C1C1E",
"/ 	c #121C20",
"( 	c #131C20",
"_ 	c #111112",
": 	c #111212",
"< 	c #0F0F0F",
"[ 	c #0E0E0F",
"} 	c #0F0E0F",
"| 	c #0E0E10",
"1 	c #100F0F",
"2 	c #0E0D0D",
"3 	c #12100E",
"4 	c #110E0D",
"5 	c #0F0D0B",
"6 	c #0D0C0A",
"7 	c #0D0C0B",
"8 	c #0E0C0A",
"9 	c #0E0C09",
"0 	c #0E0B09",
"a 	c #0F0D0C",
"b 	c #0E0D0C",
"c 	c #0D0D0C",
"d 	c #1D2D36",
"e 	c #2C2E2F",
"f 	c #1D2C35",
"g 	c #2A3135",
"h 	c #293136",
"i 	c #242C30",
"j 	c #242D31",
"k 	c #242E32",
"l 	c #222629",
"m 	c #22272B",
"n 	c #22282C",
"o 	c #262626",
"p 	c #24292B",
"q 	c #212A30",
"r 	c #24282B",
"s 	c #23282B",
"t 	c #22262A",
"u 	c #292B2D",
"v 	c #23272B",
"w 	c #292829",
"x 	c #21272B",
"y 	c #22282B",
"z 	c #262526",
"A 	c #282829",
"B 	c #29282A",
"C 	c #222425",
"D 	c #222426",
"E 	c #222324",
"F 	c #222325",
"G 	c #20262A",
"H 	c #232224",
"I 	c #212629",
"J 	c #232223",
"K 	c #222223",
"L 	c #20262B",
"M 	c #212426",
"N 	c #212325",
"O 	c #1F262B",
"P 	c #222224",
"Q 	c #1F272B",
"R 	c #1F272C",
"S 	c #212425",
"T 	c #232527",
"U 	c #242527",
"V 	c #464647",
"W 	c #434A4B",
"X 	c #474646",
"Y 	c #43494A",
"Z 	c #44484A",
"` 	c #444849",
" .	c #43494B",
"..	c #464545",
"+.	c #454647",
"@.	c #464646",
"#.	c #454747",
"$.	c #42494B",
"%.	c #454445",
"&.	c #464747",
"*.	c #464848",
"=.	c #3F3D3E",
"-.	c #414445",
";.	c #414343",
">.	c #4A4A4A",
",.	c #42484C",
"'.	c #44484C",
").	c #43484C",
"!.	c #42484B",
"~.	c #4C4D4E",
"{.	c #464748",
"].	c #444446",
"^.	c #444546",
"/.	c #454748",
"(.	c #424444",
"_.	c #424344",
":.	c #101010",
"<.	c #0F100F",
"[.	c #121211",
"}.	c #100F0E",
"|.	c #10100F",
"1.	c #101110",
"2.	c #101111",
"3.	c #101212",
"4.	c #111313",
"5.	c #141515",
"6.	c #141415",
"7.	c #131517",
"8.	c #131617",
"9.	c #131616",
"0.	c #131618",
"a.	c #131313",
"b.	c #131414",
"c.	c #141514",
"d.	c #141516",
"e.	c #131516",
"f.	c #141617",
"g.	c #151514",
"h.	c #11232B",
"i.	c #12232C",
"j.	c #12232D",
"k.	c #11232E",
"l.	c #131F26",
"m.	c #132028",
"n.	c #132029",
"o.	c #141E22",
"p.	c #131F24",
"q.	c #131F25",
"r.	c #131E26",
"s.	c #131E28",
"t.	c #131F27",
"u.	c #142129",
"v.	c #121A1F",
"w.	c #121B20",
"x.	c #151A1E",
"y.	c #141A1E",
"z.	c #141A1F",
"A.	c #141A20",
"B.	c #151B20",
"C.	c #11181C",
"D.	c #11191E",
"E.	c #14171A",
"F.	c #13181C",
"G.	c #131619",
"H.	c #13171A",
"I.	c #13181B",
"J.	c #10679D",
"K.	c #0D6795",
"L.	c #0E6B96",
"M.	c #0B6390",
"N.	c #0B6594",
"O.	c #0D6291",
"P.	c #085D8C",
"Q.	c #125589",
"R.	c #10598C",
"S.	c #135789",
"T.	c #0A577E",
"U.	c #0A517C",
"V.	c #0A5677",
"W.	c #0A4F70",
"X.	c #095275",
"Y.	c #174C67",
"Z.	c #154F6D",
"`.	c #144463",
" +	c #144665",
".+	c #134766",
"++	c #134867",
"@+	c #144869",
"#+	c #0F4762",
"$+	c #10465D",
"%+	c #143F54",
"&+	c #134056",
"*+	c #154357",
"=+	c #113457",
"-+	c #133850",
";+	c #133852",
">+	c #123952",
",+	c #123A56",
"'+	c #143342",
")+	c #133647",
"!+	c #17303E",
"~+	c #10313E",
"{+	c #142833",
"]+	c #142C36",
"^+	c #122135",
"/+	c #12262E",
"(+	c #11202C",
"_+	c #121D23",
":+	c #141618",
"<+	c #19354B",
"[+	c #18384E",
"}+	c #122852",
"|+	c #173542",
"1+	c #183546",
"2+	c #132C38",
"3+	c #13313E",
"4+	c #152C37",
"5+	c #142F38",
"6+	c #102137",
"7+	c #12243D",
"8+	c #15232E",
"9+	c #152532",
"0+	c #152736",
"a+	c #142428",
"b+	c #111C35",
"c+	c #10252D",
"d+	c #102630",
"e+	c #102732",
"f+	c #13222A",
"g+	c #161F25",
"h+	c #0F1B20",
"i+	c #171C1F",
"j+	c #121625",
"k+	c #152022",
"l+	c #131521",
"m+	c #0E1F22",
"n+	c #141C1E",
"o+	c #141D20",
"p+	c #101A1C",
"q+	c #101C1E",
"r+	c #12141B",
"s+	c #131316",
"t+	c #121419",
"u+	c #12161C",
"v+	c #141416",
"w+	c #131415",
"x+	c #131719",
"y+	c #141414",
"z+	c #12222B",
"A+	c #141F23",
"B+	c #12222D",
"C+	c #141E26",
"D+	c #13232F",
"E+	c #142028",
"F+	c #101E25",
"G+	c #101E26",
"H+	c #102028",
"I+	c #151A20",
"J+	c #10181D",
"K+	c #141B21",
"L+	c #141B22",
"M+	c #101A20",
"N+	c #0F1A20",
"O+	c #13161A",
"P+	c #14171B",
"Q+	c #131518",
"R+	c #151413",
"S+	c #141413",
"T+	c #151616",
". . . + + + + . @ # $ % & * = - ; > , ' ) ) ) ) ) ' , , , ! ~ $ $ ~ ! ' { ] ^ ' , , / ( ",
"_ _ _ _ : _ : _ < [ } | 1 2 2 3 4 5 6 7 8 9 0 0 a a a a a a a a a a b b c b b 2 2 c c c ",
"d e d e d e d e f g f h i j k l m n o p q q r s t u m v v v v v v m w x w m y z n A A B ",
"C D E F G H I I J G K L E F F F M M M F F F M N O P Q F R S M M M M M M M M M M N D T U ",
"V V W X Y Z ` `  ...+.@.+.#.V $.%.V &.&.&.&.&.V  . ...+.@.+.#.#.#.#.#.#.#.#.#.#.*.=.-.;.",
">.,.>.,.'.,.>.,.>.,.).).).).).!.~.,.&.&.&.&.&.&.&.&.{.].].].].].].].].].].].].].^./.(._.",
":.:.:.:.:.:.:.:.:.<.[.}.[.}.[.|.1.:.2.2.2.2.2.2.2.2.2.3.3.3.3.3.3.3.3.3.3.3.3.3.3.: : 4.",
"5.5.5.5.5.5.5.5.5.5.5.5.5.5.5.5.5.5.5.5.5.5.5.5.5.5.5.5.5.5.5.5.5.5.5.5.5.5.5.5.5.5.5.5.",
"5.5.5.5.5.5.5.5.5.5.5.5.5.5.5.5.5.5.5.5.5.5.5.5.5.5.5.5.5.5.5.5.5.5.5.5.5.5.5.5.5.5.5.5.",
"5.5.5.5.5.5.5.5.5.5.5.5.5.5.5.5.5.5.5.5.5.5.5.5.5.5.5.5.5.5.5.5.5.5.5.5.5.5.5.5.5.5.5.5.",
"5.5.5.5.5.5.5.5.5.5.5.5.5.5.5.5.5.5.5.5.5.5.5.5.5.5.5.5.5.5.5.5.5.5.5.5.5.5.5.5.5.5.5.5.",
"5.5.5.5.5.5.5.5.5.5.5.5.5.5.5.5.5.5.5.5.5.5.5.5.5.5.5.5.5.5.5.5.5.5.5.5.5.5.5.5.5.5.5.5.",
"5.5.5.5.5.5.5.5.5.5.5.5.5.5.5.5.5.5.5.5.5.5.5.5.5.5.5.5.5.5.5.5.5.5.5.5.5.5.5.5.5.5.5.5.",
"6.6.6.5.7.8.8.8.9.9.9.9.0.a.b.b.c.5.5.5.5.5.d.d.d.d.d.d.e.e.e.d.d.f.f.f.f.g.c.c.c.c.5.5.",
"h.i.j.k.l.m.m.n.o.p.p.q.r.s.t.u.v.w.w.w.w.x.y.z.A.A.A.B.C.& D.E.F.G.G.H.I.0.G.0.0.H.f.5.",
"J.K.L.M.N.O.P.Q.R.S.T.U.V.W.X.Y.Z.`. +.+++@+#+$+%+&+*+=+-+;+>+,+'+)+!+~+{+]+^+/+(+_+A.:+",
"<+[+}+|+1+2+3+4+5+6+7+8+9+0+a+b+c+d+e+u.f+g+h+i+j+k+l+m+n+o+p+q+r+s+t+u+v+:+5.f.E.w+x+y+",
"z+A+B+r.C+D+E+F+F+F+G+H+x.z.z.z.z.A.I+J+K+L+) M+M+N+G.O+O+H.E.P+I.F.F.0.Q+0.G.H.f.f.c.5.",
"b.b.b.b.b.b.b.c.5.5.5.5.5.d.d.d.d.d.R+S+S+S+S+S+S+S+y+c.c.c.c.c.c.c.c.c.c.c.c.c.5.5.5.5.",
"5.5.5.5.5.5.5.5.5.5.5.5.5.5.5.5.5.5.5.5.5.5.5.5.5.5.5.5.5.5.5.5.5.5.5.5.5.5.5.5.5.5.5.5.",
"5.5.5.5.5.5.5.5.5.5.5.5.5.5.5.5.5.5.5.5.5.5.5.5.5.5.5.5.5.5.5.5.5.5.5.5.5.5.5.5.5.5.5.5.",
"5.5.5.5.5.5.5.5.5.5.5.5.5.5.5.5.5.5.5.5.5.5.5.5.5.5.5.5.5.5.5.5.5.5.5.5.5.5.5.5.5.5.5.5.",
"5.5.5.5.5.5.5.5.5.5.5.5.5.5.5.5.5.5.5.5.5.5.5.5.5.5.5.5.5.5.5.5.5.5.5.5.5.5.5.5.5.5.5.5.",
"5.5.5.5.5.5.5.5.5.5.5.5.5.5.5.5.5.5.5.5.5.5.5.5.5.5.5.5.5.5.5.5.5.5.5.5.5.5.5.5.5.5.5.5.",
"5.5.5.5.5.5.5.5.5.5.5.5.5.5.5.5.5.5.5.5.5.5.5.5.5.5.5.5.5.5.5.5.5.5.5.5.5.5.5.5.5.5.5.5.",
"5.5.5.5.5.5.5.5.5.5.5.5.5.5.5.5.5.5.5.5.5.5.5.5.5.5.5.5.5.5.5.5.5.5.5.5.5.5.5.5.5.5.5.5.",
"5.5.5.5.5.5.5.5.5.5.5.5.5.5.5.5.5.5.5.5.5.5.5.5.5.5.5.5.5.5.5.5.5.5.5.5.5.5.5.5.5.5.5.5.",
"5.5.5.5.5.5.5.5.5.5.5.5.5.5.5.5.5.5.5.5.5.5.5.5.5.5.5.5.5.5.5.5.5.5.5.5.5.5.5.5.5.5.5.5.",
"T+T+T+T+T+T+T+T+T+T+T+T+T+T+T+T+T+T+T+T+T+T+T+T+T+T+T+T+T+T+T+T+T+T+T+T+T+T+T+T+T+T+T+T+"};
