/* XPM */
static char * title_2_inactive_xpm[] = {
"44 29 269 2",
"  	c None",
". 	c #131C20",
"+ 	c #121C20",
"@ 	c #121B1F",
"# 	c #111A1F",
"$ 	c #1C1C1E",
"% 	c #0F1A1E",
"& 	c #1C1C1F",
"* 	c #121B1E",
"= 	c #121A1E",
"- 	c #121A1D",
"; 	c #111A1E",
"> 	c #111B1F",
", 	c #111A1C",
"' 	c #11181B",
") 	c #17262D",
"! 	c #12191C",
"~ 	c #11191C",
"{ 	c #11191D",
"] 	c #131C1F",
"^ 	c #10161A",
"/ 	c #101519",
"( 	c #101418",
"_ 	c #0D0D0C",
": 	c #0E0D0D",
"< 	c #0E0D0C",
"[ 	c #0F0D0C",
"} 	c #0E0B09",
"| 	c #0E0C09",
"1 	c #0E0C0A",
"2 	c #0D0C0B",
"3 	c #0D0C0A",
"4 	c #0F0D0B",
"5 	c #110E0D",
"6 	c #12100E",
"7 	c #100F0F",
"8 	c #0E0E10",
"9 	c #0F0E0F",
"0 	c #0E0E0F",
"a 	c #0F0F0F",
"b 	c #111112",
"c 	c #111212",
"d 	c #29282A",
"e 	c #282829",
"f 	c #22282C",
"g 	c #262526",
"h 	c #22282B",
"i 	c #22272B",
"j 	c #292829",
"k 	c #21272B",
"l 	c #23272B",
"m 	c #292B2D",
"n 	c #22262A",
"o 	c #23282B",
"p 	c #24282B",
"q 	c #212A30",
"r 	c #24292B",
"s 	c #262626",
"t 	c #222629",
"u 	c #242E32",
"v 	c #242D31",
"w 	c #242C30",
"x 	c #293136",
"y 	c #1D2C35",
"z 	c #2A3135",
"A 	c #2C2E2F",
"B 	c #1D2D36",
"C 	c #242527",
"D 	c #232527",
"E 	c #222426",
"F 	c #212325",
"G 	c #212426",
"H 	c #212425",
"I 	c #1F272C",
"J 	c #222325",
"K 	c #1F272B",
"L 	c #222224",
"M 	c #1F262B",
"N 	c #222324",
"O 	c #20262B",
"P 	c #222223",
"Q 	c #20262A",
"R 	c #232223",
"S 	c #212629",
"T 	c #232224",
"U 	c #222425",
"V 	c #414343",
"W 	c #414445",
"X 	c #3F3D3E",
"Y 	c #464848",
"Z 	c #454747",
"` 	c #454647",
" .	c #464646",
"..	c #464545",
"+.	c #43494B",
"@.	c #464647",
"#.	c #464747",
"$.	c #454445",
"%.	c #42494B",
"&.	c #444849",
"*.	c #44484A",
"=.	c #43494A",
"-.	c #474646",
";.	c #434A4B",
">.	c #424344",
",.	c #424444",
"'.	c #454748",
").	c #444546",
"!.	c #444446",
"~.	c #464748",
"{.	c #42484C",
"].	c #4C4D4E",
"^.	c #42484B",
"/.	c #43484C",
"(.	c #4A4A4A",
"_.	c #44484C",
":.	c #111313",
"<.	c #101212",
"[.	c #101111",
"}.	c #101010",
"|.	c #101110",
"1.	c #10100F",
"2.	c #121211",
"3.	c #100F0E",
"4.	c #0F100F",
"5.	c #141515",
"6.	c #141514",
"7.	c #151514",
"8.	c #141617",
"9.	c #141516",
"0.	c #131516",
"a.	c #131414",
"b.	c #131313",
"c.	c #131618",
"d.	c #131616",
"e.	c #131617",
"f.	c #131517",
"g.	c #141415",
"h.	c #13171A",
"i.	c #131619",
"j.	c #13181B",
"k.	c #13181C",
"l.	c #14171A",
"m.	c #11191E",
"n.	c #11181C",
"o.	c #151B20",
"p.	c #141A20",
"q.	c #141A1F",
"r.	c #141A1E",
"s.	c #151A1E",
"t.	c #121B20",
"u.	c #121A1F",
"v.	c #142129",
"w.	c #131F27",
"x.	c #131E28",
"y.	c #131E26",
"z.	c #131F25",
"A.	c #131F24",
"B.	c #141E22",
"C.	c #132029",
"D.	c #132028",
"E.	c #131F26",
"F.	c #11232E",
"G.	c #12232D",
"H.	c #12232C",
"I.	c #11232B",
"J.	c #141618",
"K.	c #121D23",
"L.	c #11202C",
"M.	c #12262E",
"N.	c #122135",
"O.	c #142C36",
"P.	c #142833",
"Q.	c #10313E",
"R.	c #17303E",
"S.	c #133647",
"T.	c #143342",
"U.	c #123A56",
"V.	c #123952",
"W.	c #133852",
"X.	c #133850",
"Y.	c #113457",
"Z.	c #154357",
"`.	c #134056",
" +	c #143F54",
".+	c #10465D",
"++	c #0F4762",
"@+	c #144869",
"#+	c #134867",
"$+	c #134766",
"%+	c #144665",
"&+	c #144463",
"*+	c #154F6D",
"=+	c #174C67",
"-+	c #095275",
";+	c #0A4F70",
">+	c #0A5677",
",+	c #0A517C",
"'+	c #0A577E",
")+	c #135789",
"!+	c #10598C",
"~+	c #125589",
"{+	c #085D8C",
"]+	c #0D6291",
"^+	c #0B6594",
"/+	c #0B6390",
"(+	c #0E6B96",
"_+	c #0D6795",
":+	c #10679D",
"<+	c #141414",
"[+	c #131719",
"}+	c #131415",
"|+	c #141416",
"1+	c #12161C",
"2+	c #121419",
"3+	c #131316",
"4+	c #12141B",
"5+	c #101C1E",
"6+	c #101A1C",
"7+	c #141D20",
"8+	c #141C1E",
"9+	c #0E1F22",
"0+	c #131521",
"a+	c #152022",
"b+	c #121625",
"c+	c #171C1F",
"d+	c #0F1B20",
"e+	c #161F25",
"f+	c #13222A",
"g+	c #102732",
"h+	c #102630",
"i+	c #10252D",
"j+	c #111C35",
"k+	c #142428",
"l+	c #152736",
"m+	c #152532",
"n+	c #15232E",
"o+	c #12243D",
"p+	c #102137",
"q+	c #142F38",
"r+	c #152C37",
"s+	c #13313E",
"t+	c #132C38",
"u+	c #183546",
"v+	c #173542",
"w+	c #122852",
"x+	c #18384E",
"y+	c #19354B",
"z+	c #131518",
"A+	c #14171B",
"B+	c #13161A",
"C+	c #0F1A20",
"D+	c #101A20",
"E+	c #141B22",
"F+	c #141B21",
"G+	c #10181D",
"H+	c #151A20",
"I+	c #102028",
"J+	c #101E26",
"K+	c #101E25",
"L+	c #142028",
"M+	c #13232F",
"N+	c #141E26",
"O+	c #12222D",
"P+	c #141F23",
"Q+	c #12222B",
"R+	c #141413",
"S+	c #151413",
"T+	c #151616",
". + @ @ # $ % & # * = - - = * @ @ @ # ; ; ; ; ; # @ > , ' ) ! ~ { - ] ^ / ( ( ( ( / / / ",
"_ _ _ : : < < _ < < [ [ [ [ [ [ [ [ [ [ } } | 1 2 3 4 5 6 : : 7 8 9 0 a b c b c b b b b ",
"d e e f g h i j k j i l l l l l l i m n o p q q r s f i t u v w x y z y A B A B A B A B ",
"C D E F G G G G G G G G G G H I J K L M F G J J J G G G J J J N O P Q R S S T Q J N E U ",
"V W X Y Z Z Z Z Z Z Z Z Z Z `  .` ..+.+.@.#.#.#.#.#.@.$.%.@.Z `  .` ..+.&.&.*.=.-.;.@.@.",
">.,.'.).!.!.!.!.!.!.!.!.!.!.!.!.!.~.#.#.#.#.#.#.#.#.{.].^./././././.{.(.{.(.{._.{.(.{.(.",
":.c c <.<.<.<.<.<.<.<.<.<.<.<.<.<.[.[.[.[.[.[.[.[.[.}.|.1.2.3.2.3.2.4.}.}.}.}.}.}.}.}.}.",
"5.5.5.5.5.5.5.5.5.5.5.5.5.5.5.5.5.5.5.5.5.5.5.5.5.5.5.5.5.5.5.5.5.5.5.5.5.5.5.5.5.5.5.5.",
"5.5.5.5.5.5.5.5.5.5.5.5.5.5.5.5.5.5.5.5.5.5.5.5.5.5.5.5.5.5.5.5.5.5.5.5.5.5.5.5.5.5.5.5.",
"5.5.5.5.5.5.5.5.5.5.5.5.5.5.5.5.5.5.5.5.5.5.5.5.5.5.5.5.5.5.5.5.5.5.5.5.5.5.5.5.5.5.5.5.",
"5.5.5.5.5.5.5.5.5.5.5.5.5.5.5.5.5.5.5.5.5.5.5.5.5.5.5.5.5.5.5.5.5.5.5.5.5.5.5.5.5.5.5.5.",
"5.5.5.5.5.5.5.5.5.5.5.5.5.5.5.5.5.5.5.5.5.5.5.5.5.5.5.5.5.5.5.5.5.5.5.5.5.5.5.5.5.5.5.5.",
"5.5.5.5.5.5.5.5.5.5.5.5.5.5.5.5.5.5.5.5.5.5.5.5.5.5.5.5.5.5.5.5.5.5.5.5.5.5.5.5.5.5.5.5.",
"5.5.6.6.6.6.7.8.8.8.8.9.9.0.0.0.9.9.9.9.9.9.5.5.5.5.5.6.a.a.b.c.d.d.d.d.e.e.e.f.5.g.g.g.",
"5.8.h.c.c.i.c.j.h.i.i.k.l.m.~ n.o.p.p.p.q.r.s.t.t.t.t.u.v.w.x.y.z.A.A.B.C.D.D.E.F.G.H.I.",
"J.p.K.L.M.N.O.P.Q.R.S.T.U.V.W.X.Y.Z.`. +.+++@+#+$+%+&+*+=+-+;+>+,+'+)+!+~+{+]+^+/+(+_+:+",
"<+[+}+l.8.5.J.|+1+2+3+4+5+6+7+8+9+0+a+b+c+d+e+f+v.g+h+i+j+k+l+m+n+o+p+q+r+s+t+u+v+w+x+y+",
"5.6.8.8.h.i.c.z+c.k.k.j.A+l.h.B+B+i.C+D+D+; E+F+G+H+p.q.q.q.q.s.I+J+K+K+K+L+M+N+y.O+P+Q+",
"5.5.5.5.6.6.6.6.6.6.6.6.6.6.6.6.6.<+R+R+R+R+R+R+R+S+9.9.9.9.9.5.5.5.5.5.6.a.a.a.a.a.a.a.",
"5.5.5.5.5.5.5.5.5.5.5.5.5.5.5.5.5.5.5.5.5.5.5.5.5.5.5.5.5.5.5.5.5.5.5.5.5.5.5.5.5.5.5.5.",
"5.5.5.5.5.5.5.5.5.5.5.5.5.5.5.5.5.5.5.5.5.5.5.5.5.5.5.5.5.5.5.5.5.5.5.5.5.5.5.5.5.5.5.5.",
"5.5.5.5.5.5.5.5.5.5.5.5.5.5.5.5.5.5.5.5.5.5.5.5.5.5.5.5.5.5.5.5.5.5.5.5.5.5.5.5.5.5.5.5.",
"5.5.5.5.5.5.5.5.5.5.5.5.5.5.5.5.5.5.5.5.5.5.5.5.5.5.5.5.5.5.5.5.5.5.5.5.5.5.5.5.5.5.5.5.",
"5.5.5.5.5.5.5.5.5.5.5.5.5.5.5.5.5.5.5.5.5.5.5.5.5.5.5.5.5.5.5.5.5.5.5.5.5.5.5.5.5.5.5.5.",
"5.5.5.5.5.5.5.5.5.5.5.5.5.5.5.5.5.5.5.5.5.5.5.5.5.5.5.5.5.5.5.5.5.5.5.5.5.5.5.5.5.5.5.5.",
"5.5.5.5.5.5.5.5.5.5.5.5.5.5.5.5.5.5.5.5.5.5.5.5.5.5.5.5.5.5.5.5.5.5.5.5.5.5.5.5.5.5.5.5.",
"5.5.5.5.5.5.5.5.5.5.5.5.5.5.5.5.5.5.5.5.5.5.5.5.5.5.5.5.5.5.5.5.5.5.5.5.5.5.5.5.5.5.5.5.",
"5.5.5.5.5.5.5.5.5.5.5.5.5.5.5.5.5.5.5.5.5.5.5.5.5.5.5.5.5.5.5.5.5.5.5.5.5.5.5.5.5.5.5.5.",
"T+T+T+T+T+T+T+T+T+T+T+T+T+T+T+T+T+T+T+T+T+T+T+T+T+T+T+T+T+T+T+T+T+T+T+T+T+T+T+T+T+T+T+T+"};
