/* XPM */
static char * top_right_active_xpm[] = {
"54 83 645 2",
"  	c None",
". 	c #13191B",
"+ 	c #1B1A18",
"@ 	c #0E0E0E",
"# 	c #0F1317",
"$ 	c #0C0F12",
"% 	c #090E11",
"& 	c #040B0F",
"* 	c #131519",
"= 	c #1B1B1A",
"- 	c #111113",
"; 	c #121314",
"> 	c #101110",
", 	c #101111",
"' 	c #0F0F0E",
") 	c #121416",
"! 	c #0F1518",
"~ 	c #060000",
"{ 	c #0D0000",
"] 	c #080000",
"^ 	c #0F0000",
"/ 	c #0C0000",
"( 	c #0A0000",
"_ 	c #040000",
": 	c #0F100F",
"< 	c #111110",
"[ 	c #0D0E0D",
"} 	c #0E0F0F",
"| 	c #101212",
"1 	c #131414",
"2 	c #151616",
"3 	c #141515",
"4 	c #121313",
"5 	c #191B1C",
"6 	c #100F0F",
"7 	c #141413",
"8 	c #080200",
"9 	c #130200",
"0 	c #111C26",
"a 	c #1D6F83",
"b 	c #09B0ED",
"c 	c #1CC3FF",
"d 	c #1EC8FE",
"e 	c #0AB8FF",
"f 	c #009CE4",
"g 	c #116A92",
"h 	c #03304B",
"i 	c #040100",
"j 	c #1D2124",
"k 	c #1D2023",
"l 	c #201E1E",
"m 	c #343536",
"n 	c #020203",
"o 	c #090A0A",
"p 	c #171717",
"q 	c #161616",
"r 	c #1B1B1C",
"s 	c #171716",
"t 	c #0B0000",
"u 	c #080607",
"v 	c #151A20",
"w 	c #1292D6",
"x 	c #1ECBFF",
"y 	c #2284AF",
"z 	c #101A22",
"A 	c #170906",
"B 	c #170C0C",
"C 	c #13161E",
"D 	c #246FA7",
"E 	c #1ACFFF",
"F 	c #0B557F",
"G 	c #0A0201",
"H 	c #191C1E",
"I 	c #1C1B1A",
"J 	c #202021",
"K 	c #5E6060",
"L 	c #E1DFDF",
"M 	c #272A2D",
"N 	c #000000",
"O 	c #1B1B1B",
"P 	c #181818",
"Q 	c #121110",
"R 	c #144460",
"S 	c #17313F",
"T 	c #0B0B0C",
"U 	c #0F2A31",
"V 	c #142C3B",
"W 	c #0A0E1A",
"X 	c #020000",
"Y 	c #091922",
"Z 	c #0477A0",
"` 	c #101013",
" .	c #100000",
"..	c #140000",
"+.	c #050000",
"@.	c #2E2F30",
"#.	c #2D3032",
"$.	c #2D2F32",
"%.	c #202022",
"&.	c #0B1012",
"*.	c #6C6D6E",
"=.	c #606364",
"-.	c #0E0E0D",
";.	c #151515",
">.	c #1C1C1C",
",.	c #191919",
"'.	c #191918",
").	c #151615",
"!.	c #120A0E",
"~.	c #0E8DC5",
"{.	c #1FC9FF",
"].	c #03B2DE",
"^.	c #0D88B3",
"/.	c #21719D",
"(.	c #0E5780",
"_.	c #063B5B",
":.	c #1B2E38",
"<.	c #12181F",
"[.	c #0C090B",
"}.	c #0D2029",
"|.	c #142D3B",
"1.	c #224360",
"2.	c #216284",
"3.	c #2185A9",
"4.	c #138AC2",
"5.	c #249EDC",
"6.	c #08B7E6",
"7.	c #04B6E2",
"8.	c #0C90BF",
"9.	c #215677",
"0.	c #10040B",
"a.	c #343534",
"b.	c #353637",
"c.	c #323233",
"d.	c #313132",
"e.	c #302F30",
"f.	c #1E2021",
"g.	c #212020",
"h.	c #313232",
"i.	c #0D0E0E",
"j.	c #111212",
"k.	c #161717",
"l.	c #1A1A1A",
"m.	c #181717",
"n.	c #181918",
"o.	c #100400",
"p.	c #132632",
"q.	c #1B4363",
"r.	c #2577A3",
"s.	c #1493C8",
"t.	c #1AC2E1",
"u.	c #0BCBFD",
"v.	c #24C3FF",
"w.	c #20CBFF",
"x.	c #30DCFF",
"y.	c #33CEFF",
"z.	c #29C3FF",
"A.	c #00BFEE",
"B.	c #1293C7",
"C.	c #1E72A0",
"D.	c #226080",
"E.	c #0A496C",
"F.	c #09486D",
"G.	c #0F5078",
"H.	c #247CA3",
"I.	c #03BBF7",
"J.	c #06C3F9",
"K.	c #1A384E",
"L.	c #0E0000",
"M.	c #0F1111",
"N.	c #0F0F0F",
"O.	c #161718",
"P.	c #131413",
"Q.	c #150C0E",
"R.	c #080608",
"S.	c #0B0301",
"T.	c #101011",
"U.	c #10101B",
"V.	c #090F10",
"W.	c #0A0200",
"X.	c #055074",
"Y.	c #183A4F",
"Z.	c #120600",
"`.	c #1977AB",
" +	c #0CDDFF",
".+	c #0F4A6C",
"++	c #191817",
"@+	c #19191A",
"#+	c #0C1B23",
"$+	c #030E13",
"%+	c #000005",
"&+	c #171C21",
"*+	c #0BECFF",
"=+	c #0F080C",
"-+	c #236E9A",
";+	c #10F7FF",
">+	c #191D2D",
",+	c #18191A",
"'+	c #121B21",
")+	c #0C1C24",
"!+	c #040F13",
"~+	c #030509",
"{+	c #000002",
"]+	c #050100",
"^+	c #0881CB",
"/+	c #19B1EE",
"(+	c #1CA4D8",
"_+	c #09AADE",
":+	c #0D0100",
"<+	c #1A1816",
"[+	c #171719",
"}+	c #1A1A1B",
"|+	c #11171A",
"1+	c #0E0E0F",
"2+	c #09090B",
"3+	c #000508",
"4+	c #11DDFE",
"5+	c #1B5C72",
"6+	c #162C3A",
"7+	c #0CD4FF",
"8+	c #101316",
"9+	c #131515",
"0+	c #1A1919",
"a+	c #181716",
"b+	c #181919",
"c+	c #11171B",
"d+	c #0A1215",
"e+	c #080A0C",
"f+	c #010507",
"g+	c #030405",
"h+	c #0A2B46",
"i+	c #0AC3FF",
"j+	c #1A2F42",
"k+	c #120000",
"l+	c #06D0F9",
"m+	c #132031",
"n+	c #171A1C",
"o+	c #1A1B1D",
"p+	c #101114",
"q+	c #0E1011",
"r+	c #060301",
"s+	c #183B49",
"t+	c #07DDFF",
"u+	c #1A3B53",
"v+	c #23B8E3",
"w+	c #144F6E",
"x+	c #171615",
"y+	c #131617",
"z+	c #161819",
"A+	c #0B0908",
"B+	c #0C3453",
"C+	c #0B7687",
"D+	c #151C22",
"E+	c #0E0401",
"F+	c #0F7DA7",
"G+	c #168EBA",
"H+	c #141616",
"I+	c #110401",
"J+	c #18110E",
"K+	c #0B0A0A",
"L+	c #171818",
"M+	c #101010",
"N+	c #0A0B0A",
"O+	c #161817",
"P+	c #111111",
"Q+	c #191A1A",
"R+	c #171819",
"S+	c #050506",
"T+	c #161719",
"U+	c #060607",
"V+	c #040505",
"W+	c #0D0D0D",
"X+	c #0F1010",
"Y+	c #0A0A0B",
"Z+	c #363737",
"`+	c #4D4F50",
" @	c #565758",
".@	c #444545",
"+@	c #1D1E20",
"@@	c #050809",
"#@	c #111211",
"$@	c #131314",
"%@	c #000104",
"&@	c #010101",
"*@	c #707476",
"=@	c #5C6265",
"-@	c #525557",
";@	c #383A3C",
">@	c #444647",
",@	c #565859",
"'@	c #4A4C4D",
")@	c #030404",
"!@	c #6D7073",
"~@	c #5B6162",
"{@	c #AEB8BD",
"]@	c #B1BEC2",
"^@	c #9B9A99",
"/@	c #585453",
"(@	c #363839",
"_@	c #535657",
":@	c #606162",
"<@	c #252628",
"[@	c #010000",
"}@	c #667177",
"|@	c #6288B5",
"1@	c #62A0C1",
"2@	c #548DB6",
"3@	c #638A96",
"4@	c #96ACB1",
"5@	c #B4B2B0",
"6@	c #888382",
"7@	c #383A3B",
"8@	c #2E2E2E",
"9@	c #0C0E0E",
"0@	c #0C0C0D",
"a@	c #000101",
"b@	c #5E7777",
"c@	c #149FE9",
"d@	c #0697D9",
"e@	c #1BACEA",
"f@	c #54B9F4",
"g@	c #569BBD",
"h@	c #496285",
"i@	c #6B8FA2",
"j@	c #A9A7B1",
"k@	c #969390",
"l@	c #39393A",
"m@	c #121415",
"n@	c #5E8782",
"o@	c #269BDE",
"p@	c #018CD0",
"q@	c #22A0E2",
"r@	c #2799E9",
"s@	c #119DE9",
"t@	c #2DBBF1",
"u@	c #3389C5",
"v@	c #3E6D7E",
"w@	c #59717F",
"x@	c #716C69",
"y@	c #121212",
"z@	c #050403",
"A@	c #686F76",
"B@	c #0B5476",
"C@	c #13A7F1",
"D@	c #14A9F2",
"E@	c #12A7EC",
"F@	c #1A9EE2",
"G@	c #1D9EEB",
"H@	c #0098E0",
"I@	c #1AADFE",
"J@	c #355D6E",
"K@	c #32383B",
"L@	c #000206",
"M@	c #0B0C0C",
"N@	c #5E5D5B",
"O@	c #5E676B",
"P@	c #596872",
"Q@	c #1D5764",
"R@	c #005385",
"S@	c #1B8AC8",
"T@	c #26A9F2",
"U@	c #179EE8",
"V@	c #22B1F6",
"W@	c #1B435B",
"X@	c #1A3340",
"Y@	c #374248",
"Z@	c #62605A",
"`@	c #88B1BD",
" #	c #B7CCD6",
".#	c #94B5BB",
"+#	c #486D7C",
"@#	c #083D5F",
"##	c #005381",
"$#	c #18AFFA",
"%#	c #203C49",
"&#	c #0E2631",
"*#	c #15181A",
"=#	c #181D1F",
"-#	c #1C7FC1",
";#	c #3FADE6",
">#	c #5990BC",
",#	c #4593C5",
"'#	c #97B4BB",
")#	c #9CB2BB",
"!#	c #82939E",
"~#	c #3F4A4D",
"{#	c #252221",
"]#	c #030F16",
"^#	c #191615",
"/#	c #010913",
"(#	c #5C84B2",
"_#	c #008CD4",
":#	c #23B0EF",
"<#	c #38A2DB",
"[#	c #2E8AD1",
"}#	c #467EAA",
"|#	c #7091A0",
"1#	c #94B0BA",
"2#	c #8C8785",
"3#	c #161C1F",
"4#	c #080D12",
"5#	c #5283B2",
"6#	c #1DAAEB",
"7#	c #1093D6",
"8#	c #0994DC",
"9#	c #0093DA",
"0#	c #14A2E3",
"a#	c #1E90D3",
"b#	c #4B6F89",
"c#	c #6C7C87",
"d#	c #373A3D",
"e#	c #131313",
"f#	c #171A1B",
"g#	c #3E6491",
"h#	c #06A1EB",
"i#	c #1297D8",
"j#	c #22A2D7",
"k#	c #33A5E2",
"l#	c #33AFE6",
"m#	c #0A9EEB",
"n#	c #0A9AEA",
"o#	c #324E5A",
"p#	c #101B21",
"q#	c #000001",
"r#	c #151414",
"s#	c #212121",
"t#	c #1E3436",
"u#	c #2FA3E4",
"v#	c #0798E8",
"w#	c #15A9F3",
"x#	c #169EEC",
"y#	c #1796DF",
"z#	c #0696DA",
"A#	c #24B0F8",
"B#	c #234958",
"C#	c #020F1B",
"D#	c #282A2A",
"E#	c #010B12",
"F#	c #60788E",
"G#	c #2C646D",
"H#	c #036CA0",
"I#	c #1E91CD",
"J#	c #06A4F3",
"K#	c #1DA3E7",
"L#	c #2AB4FC",
"M#	c #0F4363",
"N#	c #111312",
"O#	c #222121",
"P#	c #080B0E",
"Q#	c #636666",
"R#	c #B0B2B6",
"S#	c #96A8B2",
"T#	c #6A808F",
"U#	c #1C5D84",
"V#	c #0781C0",
"W#	c #179CD6",
"X#	c #0D2A3C",
"Y#	c #121414",
"Z#	c #232021",
"`#	c #2E2C29",
" $	c #4C6976",
".$	c #4F5650",
"+$	c #788E9E",
"@$	c #A9B3B9",
"#$	c #84A6AA",
"$$	c #565B67",
"%$	c #0F2531",
"&$	c #1C1D1D",
"*$	c #262A2B",
"=$	c #4DBAE8",
"-$	c #3998EF",
";$	c #557796",
">$	c #3A5D7F",
",$	c #676F73",
"'$	c #ACB2B1",
")$	c #8A8F94",
"!$	c #040608",
"~$	c #272627",
"{$	c #0F1A20",
"]$	c #255F77",
"^$	c #019AE2",
"/$	c #0C96DC",
"($	c #0585C0",
"_$	c #2672A9",
":$	c #3B5E68",
"<$	c #67747A",
"[$	c #121213",
"}$	c #252627",
"|$	c #272D30",
"1$	c #0A1C34",
"2$	c #25ADF5",
"3$	c #19A2DD",
"4$	c #29A6EA",
"5$	c #27ACFF",
"6$	c #0090D7",
"7$	c #262E2E",
"8$	c #081520",
"9$	c #201F20",
"0$	c #272729",
"a$	c #131F29",
"b$	c #2788BB",
"c$	c #0F9EEA",
"d$	c #129EDD",
"e$	c #0493D6",
"f$	c #20AFFE",
"g$	c #22495C",
"h$	c #00060C",
"i$	c #111313",
"j$	c #1B1A1B",
"k$	c #252423",
"l$	c #20313A",
"m$	c #104262",
"n$	c #00A2EF",
"o$	c #24AAFA",
"p$	c #31A6E8",
"q$	c #2AADEC",
"r$	c #07374C",
"s$	c #191818",
"t$	c #151514",
"u$	c #262626",
"v$	c #272727",
"w$	c #08192A",
"x$	c #3A6B7A",
"y$	c #085482",
"z$	c #008ACB",
"A$	c #1257A8",
"B$	c #041C25",
"C$	c #1F1F1F",
"D$	c #252526",
"E$	c #1A1D20",
"F$	c #2B3941",
"G$	c #9FA7B4",
"H$	c #73889B",
"I$	c #202C2D",
"J$	c #03090C",
"K$	c #292827",
"L$	c #0B0B09",
"M$	c #2F2F2D",
"N$	c #747675",
"O$	c #B4B6B7",
"P$	c #5C5D5E",
"Q$	c #242424",
"R$	c #232324",
"S$	c #090909",
"T$	c #323132",
"U$	c #464848",
"V$	c #777D80",
"W$	c #222222",
"X$	c #232323",
"Y$	c #070909",
"Z$	c #212122",
"`$	c #333537",
" %	c #393939",
".%	c #10100F",
"+%	c #201F1F",
"@%	c #1C1B1C",
"#%	c #343537",
"$%	c #171B1C",
"%%	c #1E1E1E",
"&%	c #181718",
"*%	c #070707",
"=%	c #1F1E1E",
"-%	c #202020",
";%	c #1D1D1E",
">%	c #0B0C0B",
",%	c #101416",
"'%	c #282828",
")%	c #232322",
"!%	c #1A191A",
"~%	c #141717",
"{%	c #131415",
"]%	c #1B1B1D",
"^%	c #1B1A1A",
"/%	c #151513",
"(%	c #0F1011",
"_%	c #181816",
":%	c #313235",
"<%	c #282726",
"[%	c #181819",
"}%	c #181817",
"|%	c #1D1C1D",
"1%	c #1D1E1F",
"2%	c #B4B6B8",
"3%	c #16191B",
"4%	c #161615",
"5%	c #0D0F0F",
"6%	c #040709",
"7%	c #7C8081",
"8%	c #8C8989",
"9%	c #020101",
"0%	c #28282A",
"a%	c #444849",
"b%	c #DCDEDD",
"c%	c #2C2D2F",
"d%	c #1D1E1E",
"e%	c #5B5E5F",
"f%	c #72787D",
"g%	c #7C7F81",
"h%	c #040405",
"i%	c #161414",
"j%	c #232224",
"k%	c #626667",
"l%	c #2F3030",
"m%	c #0B0B0A",
"n%	c #0F1212",
"o%	c #626668",
"p%	c #2C2E31",
"q%	c #0D0C0C",
"r%	c #101213",
"s%	c #646868",
"t%	c #1D1F22",
"u%	c #292C2E",
"v%	c #0C0C0C",
"w%	c #656868",
"x%	c #1E2022",
"y%	c #292C2F",
"z%	c #151617",
"A%	c #0C0E10",
"B%	c #141514",
"C%	c #0B0B0B",
"D%	c #212528",
"E%	c #606365",
"F%	c #1E1F21",
"G%	c #292B2E",
"H%	c #0C0C0B",
"I%	c #212323",
"J%	c #5B8EA8",
"K%	c #236789",
"L%	c #2E3235",
"M%	c #0A0806",
"N%	c #252825",
"O%	c #4D89CA",
"P%	c #29A5E1",
"Q%	c #284D62",
"R%	c #0B0808",
"S%	c #111314",
"T%	c #242622",
"U%	c #518CCF",
"V%	c #23A5C6",
"W%	c #326C9D",
"X%	c #0B0A0B",
"Y%	c #508DD1",
"Z%	c #24A8CA",
"`%	c #316CA1",
" &	c #316DA1",
"              . + @ #                                                                                       ",
"$ % & * = - ; > , > ' ) !                   ~ { ] ^ / ( _                                                   ",
": > < [ } | 1 2 3 2 4 5 6 7           8 9 0 a b c d e f g h i                                               ",
"j k l m n o 2 4 p q p r p 4 s   t   u v w x y z A ( B C D E F G                                             ",
"H I J K L M N 4 2 p q J O P q Q R S T U V W X           ~ Y Z ` ]  .] ..{ +.                                ",
"@.#.$.%.&.*.=.-.4 ;.>.,.'.P p ).!.~.{.].^./.(._.:.<.[.}.|.1.2.3.4.5.6.7.8.9.0.~                             ",
"a.b.c.d.e.f.g.h.i.j.1 k.l.m.p 2 n.o.p.q.r.s.t.u.v.w.x.y.z.A.B.C.D.E.F.G.H.I.J.K.L.                          ",
", , M.M.M., | N.4 4 4 j.O.P.P P ,.P k.Q.R._ N ] S.T.U.V./ / ] W.X.Y. .  L.Z.`. +.+_                         ",
"4 4 4 4 4 4 4 4 4 4 4 4 ;.3 1 3 2 q q ++@+#+$+%+                &+*+=+      +.-+;+>+                        ",
"4 4 4 4 4 4 4 4 4 4 4 2 3 3 3 3 3 3 3 1 ;.,+'+)+!+~+{+          ]+^+/+ .       .(+_+:+                      ",
"4 4 4 4 4 4 4 4 4 4 4 2 3 3 3 3 3 3 3 3 3 2 <+[+}+|+1+2+3+%+      t 4+5+        6+7+8+                      ",
"4 4 4 4 4 4 4 4 4 4 4 2 3 3 3 3 3 3 3 3 3 3 9+1 0+a+k.b+c+d+e+f+  g+h+i+j+      k+l+m+                      ",
"4 4 4 4 4 4 4 4 4 4 4 2 3 3 3 3 3 3 3 3 3 3 3 3 9+k.2 2 0+n+o+p+q+  r+s+t+u+~   / v+w+                      ",
"1 1 1 1 1 1 1 1 1 1 1 3 3 3 3 3 3 3 3 3 3 3 3 3 3 3 3 3 1 2 ;.x+y+;.z+A+B+C+D+  E+F+G++.                    ",
"3 3 3 3 3 3 3 3 3 3 3 3 3 3 3 3 3 3 3 3 3 3 3 3 3 3 3 3 3 3 3 3 3 3 3 3 H+H+H+3 2 I+J+K+A+                  ",
"3 3 3 3 3 3 3 3 3 3 3 3 3 3 3 3 3 3 3 3 3 3 3 3 3 3 3 3 3 3 3 3 3 3 3 3 3 3 3 3 3 2 2 2 L+M+N+              ",
"3 3 3 3 3 3 3 3 3 3 3 3 3 3 3 3 3 3 3 3 3 3 3 3 3 3 3 3 3 3 3 3 3 3 3 3 3 3 3 3 3 3 3 3 3 2 O+k.P+          ",
"3 3 3 3 3 3 3 3 3 3 3 3 3 3 3 3 3 3 3 3 3 3 3 3 3 3 3 3 3 3 3 3 3 3 3 3 3 3 3 3 3 3 Q+2 3 3 3 3 3 R+, S+    ",
"3 3 3 3 3 3 3 3 3 3 3 3 3 3 3 3 3 3 3 3 3 3 3 3 3 3 3 3 3 3 3 3 3 3 3 3 3 3 3 3 4 T+U+V+W+k.3 3 3 3 k.X+Y+  ",
"3 3 3 3 3 3 3 3 3 3 3 3 3 3 3 3 3 3 3 3 3 3 3 3 3 3 3 3 3 3 3 3 3 3 3 3 3 3 3 3 } Z+`+ @.@+@@@[ 2 2 3 #@$@%@",
"3 3 3 3 3 3 3 3 3 3 3 3 3 3 3 3 3 3 3 3 3 3 3 3 3 3 3 3 3 3 3 3 3 3 3 3 3 3 3 3 &@*@=@-@;@>@,@'@,+)@, 1 <   ",
"3 3 3 3 3 3 3 3 3 3 3 3 3 3 3 3 3 3 3 3 3 3 3 3 3 3 3 3 3 3 3 3 3 3 3 3 3 3 3 3 &@!@~@{@]@^@/@(@_@:@<@).}   ",
"3 3 3 3 3 3 3 3 3 3 3 3 3 3 3 3 3 3 3 3 3 3 3 3 3 3 3 3 3 3 3 3 3 3 3 3 3 3 3 3 [@}@|@1@2@3@4@5@6@7@8@9@0@  ",
"3 3 3 3 3 3 3 3 3 3 3 3 3 3 3 3 3 3 3 3 3 3 3 3 3 3 3 3 3 3 3 3 3 3 3 3 3 3 3 3 a@b@c@d@e@f@g@h@i@j@k@l@m@{+",
"3 3 3 3 3 3 3 3 3 3 3 3 3 3 3 3 3 3 3 3 3 3 3 3 3 3 3 3 3 3 3 3 3 3 3 3 3 3 3 3 &@n@o@p@q@r@s@t@u@v@w@x@y@  ",
"3 3 3 3 3 3 3 3 3 3 3 3 3 3 3 3 3 3 3 3 3 3 3 3 3 3 3 3 3 3 3 3 3 3 3 3 3 3 3 3 z@A@B@C@D@E@F@G@H@I@J@K@L@  ",
"3 3 3 3 3 3 3 3 3 3 3 3 3 3 3 3 3 3 3 3 3 3 3 3 3 3 3 3 3 3 3 3 3 3 3 3 3 3 3 3 M@N@O@P@Q@R@S@T@U@V@W@X@    ",
"3 3 3 3 3 3 3 3 3 3 3 3 3 3 3 3 3 3 3 3 3 3 3 3 3 3 3 3 3 3 3 3 3 3 3 3 3 3 3 3 ).Y@Z@`@ #.#+#@###$#%#&#    ",
"3 3 3 3 3 3 3 3 3 3 3 3 3 3 3 3 3 3 3 3 3 3 3 3 3 3 3 3 3 3 3 3 3 3 3 3 3 3 3 3 *#=#-#;#>#,#'#)#!#~#{#]#    ",
"2 2 2 2 2 2 2 2 2 2 2 2 2 2 2 2 2 2 2 2 2 2 2 2 2 2 2 2 2 2 2 2 2 2 2 3 3 3 3 3 ^#/#(#_#:#<#[#}#|#1#2#3#    ",
"                                                                      3 3 3 3 3 <+4#5#6#7#8#9#0#a#b#c#d#    ",
"                                                                      3 3 3 3 3 e#f#g#h#i#j#k#l#m#n#o#p#q#  ",
"                                                                      3 3 3 3 3 r#s#t#u#v#w#x#y#z#A#B#C#    ",
"                                                                      3 3 3 3 3 | D#E#F#G#H#I#J#K#L#M#3+    ",
"                                                                      3 3 3 3 3 N#O#P#Q#R#S#T#U#V#W#X#      ",
"                                                                      3 3 3 3 3 Y#g.Z#`# $.$+$@$#$$$%$q#    ",
"                                                                      3 3 3 3 3 3 &$*$W.=$-$;$>$,$'$)$!$    ",
"                                                                      3 3 3 3 3 3 e#~${$]$^$/$($_$:$<$[$    ",
"                                                                      3 3 3 3 3 1 e#}$|$1$2$3$4$5$6$7$8$    ",
"                                                                      3 3 3 3 3 9+p 9$0$a$b$c$d$e$f$g$h$    ",
"                                                                      3 3 3 3 3 3 i$j$k$l$m$n$o$p$q$r$      ",
"                                                                      3 3 3 3 3 3 s$t$u$v$w$x$y$z$A$B$      ",
"                                                                      3 3 3 3 3 3 3 3 C$D$E$F$G$H$I$J$      ",
"                                                                      3 3 3 3 3 3 3 3 p u$K$L$M$N$O$P$[@    ",
"                                                                      3 3 3 3 3 p 3 3 ;.Q$Q$R$S$T$U$V$0@    ",
"                                                                      3 3 3 3 3 p 3 3 ).}+W$X$l.Y$Z$`$[$    ",
"                                                                      3 3 3 3 3 3 3 3 9+e#v$W$s#q X+ %.%    ",
"                                                                      3 3 3 3 3 3 3 3 3 2 +%s#s#@%9+#%N     ",
"                                                                      $%3 3 3 3 3 3 3 3 q P s#s#%%&%*%=%    ",
"                                                                      N 2 3 3 3 3 3 3 3 2 p Z$s#-%;%k.>%,%  ",
"                                                                      N 2 3 3 3 3 3 3 3 3 9+;.'%-%)%!%~%{%  ",
"                                                                      N 2 3 3 3 3 3 3 3 3 3 1 s$Q$%%]%^%/%  ",
"                                                                      N 2 3 3 3 3 3 3 3 3 3 X+(%l.-%P r _%  ",
"                                                                      N 2 3 3 3 3 3 3 3 3 4 :%<%2 [%}%Q+|%  ",
"                                                                      N 2 3 3 3 3 3 3 3 3 4 1%2%N 3%4%5%5 6%",
"                                                                      N 2 3 3 3 3 3 3 3 3 4 l.7%8%9%3 | q+  ",
"                                                                      N 2 3 3 3 3 3 3 3 3 i$0%a%b%c%P+d%    ",
"                                                                      N 2 3 3 3 3 3 3 3 3 i$R$e%f%g%h%i%    ",
"                                                                      N 2 3 3 3 3 3 3 3 3 i$j%k%<%l%m%n%    ",
"                                                                      N 2 3 3 3 3 3 3 3 3 i$j%o%-%p%q%r%    ",
"                                                                      N 2 3 3 3 3 3 3 3 3 i$j%s%t%u%v%).    ",
"                                                                      N 2 3 3 3 3 3 3 3 3 i$j%w%x%y%m%).    ",
"                                                                      N z%3 3 3 3 3 3 3 3 i$j%w%x%y%m%).    ",
"                                                                      A%3 3 3 3 3 3 3 3 3 i$j%w%x%y%m%).    ",
"                                                                      B%;.3 3 3 3 3 3 3 3 i$j%w%x%y%m%).    ",
"                                                                      3 3 3 3 3 3 3 3 3 3 i$j%w%x%y%K+).    ",
"                                                                      3 3 3 3 3 3 3 3 3 3 i$j%w%x%y%C%1     ",
"                                                                      3 3 3 3 3 3 3 3 3 3 i$j%w%x%y%C%B%    ",
"                                                                      3 3 3 3 3 3 3 3 3 3 i$j%w%x%y%C%B%    ",
"                                                                      3 3 3 3 3 3 3 3 3 3 i$j%w%x%y%C%B%    ",
"                                                                      3 3 3 3 3 3 3 3 3 3 i$j%w%x%y%C%B%    ",
"                                                                      3 3 3 3 3 3 3 3 3 3 i$j%w%x%y%C%B%    ",
"                                                                      3 3 3 3 3 3 3 3 3 3 i$j%w%x%y%C%B%    ",
"                                                                      3 3 3 3 3 3 3 3 3 3 i$j%w%x%y%C%B%    ",
"                                                                      3 3 3 3 3 3 3 3 3 3 i$j%w%x%y%C%B%    ",
"                                                                      3 3 3 3 3 3 3 3 3 3 i$j%w%x%y%C%B%    ",
"                                                                      3 3 3 3 3 3 3 3 3 3 i$D%E%F%G%H%B%    ",
"                                                                      3 3 3 3 3 3 3 3 3 3 i$I%J%K%L%M%B%    ",
"                                                                      3 3 3 3 3 3 3 3 3 3 j.N%O%P%Q%R%3     ",
"                                                                      3 3 3 3 3 3 3 3 3 3 S%T%U%V%W%X%3     ",
"                                                                      3 3 3 3 3 3 3 3 3 3 i$T%Y%Z%`%R%3     ",
"                                                                      3 3 3 3 3 3 3 3 3 3 i$T%Y%Z% &R%r#    ",
"                                                                      3 3 3 3 3 3 3 3 3 3 i$T%Y%Z% &R%3     "};
