/* XPM */
static char * top_left_inactive_xpm[] = {
"54 83 645 2",
"  	c None",
". 	c #0F1317",
"+ 	c #0E0E0E",
"@ 	c #1B1A18",
"# 	c #13191B",
"$ 	c #040000",
"% 	c #0A0000",
"& 	c #0C0000",
"* 	c #0F0000",
"= 	c #080000",
"- 	c #0D0000",
"; 	c #060000",
"> 	c #0F1518",
", 	c #121416",
"' 	c #0F0F0E",
") 	c #101110",
"! 	c #101111",
"~ 	c #121314",
"{ 	c #111113",
"] 	c #1B1B1A",
"^ 	c #131519",
"/ 	c #040B0F",
"( 	c #090E11",
"_ 	c #0C0F12",
": 	c #040100",
"< 	c #03304B",
"[ 	c #116A92",
"} 	c #009CE4",
"| 	c #0AB8FF",
"1 	c #1EC8FE",
"2 	c #1CC3FF",
"3 	c #09B0ED",
"4 	c #1D6F83",
"5 	c #111C26",
"6 	c #130200",
"7 	c #080200",
"8 	c #141413",
"9 	c #100F0F",
"0 	c #191B1C",
"a 	c #121313",
"b 	c #151616",
"c 	c #141515",
"d 	c #131414",
"e 	c #101212",
"f 	c #0E0F0F",
"g 	c #0D0E0D",
"h 	c #111110",
"i 	c #0F100F",
"j 	c #0A0201",
"k 	c #0B557F",
"l 	c #1ACFFF",
"m 	c #246FA7",
"n 	c #13161E",
"o 	c #170C0C",
"p 	c #170906",
"q 	c #101A22",
"r 	c #2284AF",
"s 	c #1ECBFF",
"t 	c #1292D6",
"u 	c #151A20",
"v 	c #080607",
"w 	c #0B0000",
"x 	c #171716",
"y 	c #171717",
"z 	c #1B1B1C",
"A 	c #161616",
"B 	c #090A0A",
"C 	c #020203",
"D 	c #343536",
"E 	c #201E1E",
"F 	c #1D2023",
"G 	c #1D2124",
"H 	c #050000",
"I 	c #140000",
"J 	c #100000",
"K 	c #101013",
"L 	c #0477A0",
"M 	c #091922",
"N 	c #020000",
"O 	c #0A0E1A",
"P 	c #142C3B",
"Q 	c #0F2A31",
"R 	c #0B0B0C",
"S 	c #17313F",
"T 	c #144460",
"U 	c #121110",
"V 	c #181818",
"W 	c #1B1B1B",
"X 	c #202021",
"Y 	c #000000",
"Z 	c #272A2D",
"` 	c #E1DFDF",
" .	c #5E6060",
"..	c #1C1B1A",
"+.	c #191C1E",
"@.	c #10040B",
"#.	c #215677",
"$.	c #0C90BF",
"%.	c #04B6E2",
"&.	c #08B7E6",
"*.	c #249EDC",
"=.	c #138AC2",
"-.	c #2185A9",
";.	c #216284",
">.	c #224360",
",.	c #142D3B",
"'.	c #0D2029",
").	c #0C090B",
"!.	c #12181F",
"~.	c #1B2E38",
"{.	c #063B5B",
"].	c #0E5780",
"^.	c #21719D",
"/.	c #0D88B3",
"(.	c #03B2DE",
"_.	c #1FC9FF",
":.	c #0E8DC5",
"<.	c #120A0E",
"[.	c #151615",
"}.	c #191918",
"|.	c #191919",
"1.	c #1C1C1C",
"2.	c #151515",
"3.	c #0E0E0D",
"4.	c #606364",
"5.	c #6C6D6E",
"6.	c #0B1012",
"7.	c #202022",
"8.	c #2D2F32",
"9.	c #2D3032",
"0.	c #2E2F30",
"a.	c #0E0000",
"b.	c #1A384E",
"c.	c #06C3F9",
"d.	c #03BBF7",
"e.	c #247CA3",
"f.	c #0F5078",
"g.	c #09486D",
"h.	c #0A496C",
"i.	c #226080",
"j.	c #1E72A0",
"k.	c #1293C7",
"l.	c #00BFEE",
"m.	c #29C3FF",
"n.	c #33CEFF",
"o.	c #30DCFF",
"p.	c #20CBFF",
"q.	c #24C3FF",
"r.	c #0BCBFD",
"s.	c #1AC2E1",
"t.	c #1493C8",
"u.	c #2577A3",
"v.	c #1B4363",
"w.	c #132632",
"x.	c #100400",
"y.	c #181918",
"z.	c #181717",
"A.	c #1A1A1A",
"B.	c #161717",
"C.	c #111212",
"D.	c #0D0E0E",
"E.	c #313232",
"F.	c #212020",
"G.	c #1E2021",
"H.	c #302F30",
"I.	c #313132",
"J.	c #323233",
"K.	c #353637",
"L.	c #343534",
"M.	c #0F4A6C",
"N.	c #0CDDFF",
"O.	c #1977AB",
"P.	c #120600",
"Q.	c #183A4F",
"R.	c #055074",
"S.	c #0A0200",
"T.	c #090F10",
"U.	c #10101B",
"V.	c #101011",
"W.	c #0B0301",
"X.	c #080608",
"Y.	c #150C0E",
"Z.	c #131413",
"`.	c #161718",
" +	c #0F0F0F",
".+	c #0F1111",
"++	c #191D2D",
"@+	c #10F7FF",
"#+	c #236E9A",
"$+	c #0F080C",
"%+	c #0BECFF",
"&+	c #171C21",
"*+	c #000005",
"=+	c #030E13",
"-+	c #0C1B23",
";+	c #19191A",
">+	c #191817",
",+	c #0D0100",
"'+	c #09AADE",
")+	c #1CA4D8",
"!+	c #19B1EE",
"~+	c #0881CB",
"{+	c #050100",
"]+	c #000002",
"^+	c #030509",
"/+	c #040F13",
"(+	c #0C1C24",
"_+	c #121B21",
":+	c #18191A",
"<+	c #101316",
"[+	c #0CD4FF",
"}+	c #162C3A",
"|+	c #1B5C72",
"1+	c #11DDFE",
"2+	c #000508",
"3+	c #09090B",
"4+	c #0E0E0F",
"5+	c #11171A",
"6+	c #1A1A1B",
"7+	c #171719",
"8+	c #1A1816",
"9+	c #132031",
"0+	c #06D0F9",
"a+	c #120000",
"b+	c #1A2F42",
"c+	c #0AC3FF",
"d+	c #0A2B46",
"e+	c #030405",
"f+	c #010507",
"g+	c #080A0C",
"h+	c #0A1215",
"i+	c #11171B",
"j+	c #181919",
"k+	c #181716",
"l+	c #1A1919",
"m+	c #131515",
"n+	c #144F6E",
"o+	c #23B8E3",
"p+	c #1A3B53",
"q+	c #07DDFF",
"r+	c #183B49",
"s+	c #060301",
"t+	c #0E1011",
"u+	c #101114",
"v+	c #1A1B1D",
"w+	c #171A1C",
"x+	c #168EBA",
"y+	c #0F7DA7",
"z+	c #0E0401",
"A+	c #151C22",
"B+	c #0B7687",
"C+	c #0C3453",
"D+	c #0B0908",
"E+	c #161819",
"F+	c #131617",
"G+	c #171615",
"H+	c #0B0A0A",
"I+	c #18110E",
"J+	c #110401",
"K+	c #141616",
"L+	c #0A0B0A",
"M+	c #101010",
"N+	c #171818",
"O+	c #111111",
"P+	c #161817",
"Q+	c #050506",
"R+	c #171819",
"S+	c #191A1A",
"T+	c #0A0A0B",
"U+	c #0F1010",
"V+	c #0D0D0D",
"W+	c #040505",
"X+	c #060607",
"Y+	c #161719",
"Z+	c #000104",
"`+	c #131314",
" @	c #111211",
".@	c #050809",
"+@	c #1D1E20",
"@@	c #444545",
"#@	c #565758",
"$@	c #4D4F50",
"%@	c #363737",
"&@	c #030404",
"*@	c #4A4C4D",
"=@	c #565859",
"-@	c #444647",
";@	c #383A3C",
">@	c #525557",
",@	c #5C6265",
"'@	c #707476",
")@	c #010101",
"!@	c #252628",
"~@	c #606162",
"{@	c #535657",
"]@	c #363839",
"^@	c #585453",
"/@	c #9B9A99",
"(@	c #B1BEC2",
"_@	c #AEB8BD",
":@	c #5B6162",
"<@	c #6D7073",
"[@	c #0C0C0D",
"}@	c #0C0E0E",
"|@	c #2E2E2E",
"1@	c #383A3B",
"2@	c #888382",
"3@	c #B4B2B0",
"4@	c #96ACB1",
"5@	c #638A96",
"6@	c #548DB6",
"7@	c #62A0C1",
"8@	c #6288B5",
"9@	c #667177",
"0@	c #010000",
"a@	c #121415",
"b@	c #39393A",
"c@	c #969390",
"d@	c #A9A7B1",
"e@	c #6B8FA2",
"f@	c #496285",
"g@	c #569BBD",
"h@	c #54B9F4",
"i@	c #1BACEA",
"j@	c #0697D9",
"k@	c #149FE9",
"l@	c #5E7777",
"m@	c #000101",
"n@	c #121212",
"o@	c #716C69",
"p@	c #59717F",
"q@	c #3E6D7E",
"r@	c #3389C5",
"s@	c #2DBBF1",
"t@	c #119DE9",
"u@	c #2799E9",
"v@	c #22A0E2",
"w@	c #018CD0",
"x@	c #269BDE",
"y@	c #5E8782",
"z@	c #000206",
"A@	c #32383B",
"B@	c #355D6E",
"C@	c #1AADFE",
"D@	c #0098E0",
"E@	c #1D9EEB",
"F@	c #1A9EE2",
"G@	c #12A7EC",
"H@	c #14A9F2",
"I@	c #13A7F1",
"J@	c #0B5476",
"K@	c #686F76",
"L@	c #050403",
"M@	c #1A3340",
"N@	c #1B435B",
"O@	c #22B1F6",
"P@	c #179EE8",
"Q@	c #26A9F2",
"R@	c #1B8AC8",
"S@	c #005385",
"T@	c #1D5764",
"U@	c #596872",
"V@	c #5E676B",
"W@	c #5E5D5B",
"X@	c #0B0C0C",
"Y@	c #0E2631",
"Z@	c #203C49",
"`@	c #18AFFA",
" #	c #005381",
".#	c #083D5F",
"+#	c #486D7C",
"@#	c #94B5BB",
"##	c #B7CCD6",
"$#	c #88B1BD",
"%#	c #62605A",
"&#	c #374248",
"*#	c #030F16",
"=#	c #252221",
"-#	c #3F4A4D",
";#	c #82939E",
">#	c #9CB2BB",
",#	c #97B4BB",
"'#	c #4593C5",
")#	c #5990BC",
"!#	c #3FADE6",
"~#	c #1C7FC1",
"{#	c #181D1F",
"]#	c #15181A",
"^#	c #161C1F",
"/#	c #8C8785",
"(#	c #94B0BA",
"_#	c #7091A0",
":#	c #467EAA",
"<#	c #2E8AD1",
"[#	c #38A2DB",
"}#	c #23B0EF",
"|#	c #008CD4",
"1#	c #5C84B2",
"2#	c #010913",
"3#	c #191615",
"4#	c #373A3D",
"5#	c #6C7C87",
"6#	c #4B6F89",
"7#	c #1E90D3",
"8#	c #14A2E3",
"9#	c #0093DA",
"0#	c #0994DC",
"a#	c #1093D6",
"b#	c #1DAAEB",
"c#	c #5283B2",
"d#	c #080D12",
"e#	c #000001",
"f#	c #101B21",
"g#	c #324E5A",
"h#	c #0A9AEA",
"i#	c #0A9EEB",
"j#	c #33AFE6",
"k#	c #33A5E2",
"l#	c #22A2D7",
"m#	c #1297D8",
"n#	c #06A1EB",
"o#	c #3E6491",
"p#	c #171A1B",
"q#	c #131313",
"r#	c #020F1B",
"s#	c #234958",
"t#	c #24B0F8",
"u#	c #0696DA",
"v#	c #1796DF",
"w#	c #169EEC",
"x#	c #15A9F3",
"y#	c #0798E8",
"z#	c #2FA3E4",
"A#	c #1E3436",
"B#	c #212121",
"C#	c #151414",
"D#	c #0F4363",
"E#	c #2AB4FC",
"F#	c #1DA3E7",
"G#	c #06A4F3",
"H#	c #1E91CD",
"I#	c #036CA0",
"J#	c #2C646D",
"K#	c #60788E",
"L#	c #010B12",
"M#	c #282A2A",
"N#	c #0D2A3C",
"O#	c #179CD6",
"P#	c #0781C0",
"Q#	c #1C5D84",
"R#	c #6A808F",
"S#	c #96A8B2",
"T#	c #B0B2B6",
"U#	c #636666",
"V#	c #080B0E",
"W#	c #222121",
"X#	c #111312",
"Y#	c #0F2531",
"Z#	c #565B67",
"`#	c #84A6AA",
" $	c #A9B3B9",
".$	c #788E9E",
"+$	c #4F5650",
"@$	c #4C6976",
"#$	c #2E2C29",
"$$	c #232021",
"%$	c #121414",
"&$	c #040608",
"*$	c #8A8F94",
"=$	c #ACB2B1",
"-$	c #676F73",
";$	c #3A5D7F",
">$	c #557796",
",$	c #3998EF",
"'$	c #4DBAE8",
")$	c #262A2B",
"!$	c #1C1D1D",
"~$	c #121213",
"{$	c #67747A",
"]$	c #3B5E68",
"^$	c #2672A9",
"/$	c #0585C0",
"($	c #0C96DC",
"_$	c #019AE2",
":$	c #255F77",
"<$	c #0F1A20",
"[$	c #272627",
"}$	c #081520",
"|$	c #262E2E",
"1$	c #0090D7",
"2$	c #27ACFF",
"3$	c #29A6EA",
"4$	c #19A2DD",
"5$	c #25ADF5",
"6$	c #0A1C34",
"7$	c #272D30",
"8$	c #252627",
"9$	c #00060C",
"0$	c #22495C",
"a$	c #20AFFE",
"b$	c #0493D6",
"c$	c #129EDD",
"d$	c #0F9EEA",
"e$	c #2788BB",
"f$	c #131F29",
"g$	c #272729",
"h$	c #201F20",
"i$	c #07374C",
"j$	c #2AADEC",
"k$	c #31A6E8",
"l$	c #24AAFA",
"m$	c #00A2EF",
"n$	c #104262",
"o$	c #20313A",
"p$	c #252423",
"q$	c #1B1A1B",
"r$	c #111313",
"s$	c #041C25",
"t$	c #1257A8",
"u$	c #008ACB",
"v$	c #085482",
"w$	c #3A6B7A",
"x$	c #08192A",
"y$	c #272727",
"z$	c #262626",
"A$	c #151514",
"B$	c #191818",
"C$	c #03090C",
"D$	c #202C2D",
"E$	c #73889B",
"F$	c #9FA7B4",
"G$	c #2B3941",
"H$	c #1A1D20",
"I$	c #252526",
"J$	c #1F1F1F",
"K$	c #5C5D5E",
"L$	c #B4B6B7",
"M$	c #747675",
"N$	c #2F2F2D",
"O$	c #0B0B09",
"P$	c #292827",
"Q$	c #777D80",
"R$	c #464848",
"S$	c #323132",
"T$	c #090909",
"U$	c #232324",
"V$	c #242424",
"W$	c #333537",
"X$	c #212122",
"Y$	c #070909",
"Z$	c #232323",
"`$	c #222222",
" %	c #10100F",
".%	c #393939",
"+%	c #343537",
"@%	c #1C1B1C",
"#%	c #201F1F",
"$%	c #1F1E1E",
"%%	c #070707",
"&%	c #181718",
"*%	c #1E1E1E",
"=%	c #171B1C",
"-%	c #101416",
";%	c #0B0C0B",
">%	c #1D1D1E",
",%	c #202020",
"'%	c #131415",
")%	c #141717",
"!%	c #1A191A",
"~%	c #232322",
"{%	c #282828",
"]%	c #151513",
"^%	c #1B1A1A",
"/%	c #1B1B1D",
"(%	c #181816",
"_%	c #0F1011",
":%	c #1D1C1D",
"<%	c #181817",
"[%	c #181819",
"}%	c #282726",
"|%	c #313235",
"1%	c #040709",
"2%	c #0D0F0F",
"3%	c #161615",
"4%	c #16191B",
"5%	c #B4B6B8",
"6%	c #1D1E1F",
"7%	c #020101",
"8%	c #8C8989",
"9%	c #7C8081",
"0%	c #1D1E1E",
"a%	c #2C2D2F",
"b%	c #DCDEDD",
"c%	c #444849",
"d%	c #28282A",
"e%	c #161414",
"f%	c #040405",
"g%	c #7C7F81",
"h%	c #72787D",
"i%	c #5B5E5F",
"j%	c #0F1212",
"k%	c #0B0B0A",
"l%	c #2F3030",
"m%	c #626667",
"n%	c #232224",
"o%	c #101213",
"p%	c #0D0C0C",
"q%	c #2C2E31",
"r%	c #626668",
"s%	c #0C0C0C",
"t%	c #292C2E",
"u%	c #1D1F22",
"v%	c #646868",
"w%	c #292C2F",
"x%	c #1E2022",
"y%	c #656868",
"z%	c #151617",
"A%	c #0C0E10",
"B%	c #141514",
"C%	c #0B0B0B",
"D%	c #0C0C0B",
"E%	c #292B2E",
"F%	c #1E1F21",
"G%	c #606365",
"H%	c #212528",
"I%	c #0A0806",
"J%	c #2E3235",
"K%	c #236789",
"L%	c #5B8EA8",
"M%	c #212323",
"N%	c #0B0808",
"O%	c #284D62",
"P%	c #29A5E1",
"Q%	c #4D89CA",
"R%	c #252825",
"S%	c #0B0A0B",
"T%	c #326C9D",
"U%	c #23A5C6",
"V%	c #518CCF",
"W%	c #242622",
"X%	c #111314",
"Y%	c #316CA1",
"Z%	c #24A8CA",
"`%	c #508DD1",
" &	c #316DA1",
"                                                                                      . + @ #               ",
"                                                  $ % & * = - ;                   > , ' ) ! ) ~ { ] ^ / ( _ ",
"                                              : < [ } | 1 2 3 4 5 6 7           8 9 0 a b c b d e f g h ) i ",
"                                            j k l m n o % p q r s t u v   w   x a y z y A y a b B C D E F G ",
"                                H - I = J = K L M ;           N O P Q R S T U A V W X A y b a Y Z `  .X ..+.",
"                            ; @.#.$.%.&.*.=.-.;.>.,.'.).!.~.{.].^./.(._.:.<.[.y V }.|.1.2.a 3.4.5.6.7.8.9.0.",
"                          a.b.c.d.e.f.g.h.i.j.k.l.m.n.o.p.q.r.s.t.u.v.w.x.y.b y z.A.B.d C.D.E.F.G.H.I.J.K.L.",
"                        $ M.N.O.P.a.  J Q.R.S.= & & T.U.V.W.= Y $ X.Y.B.V |.V V Z.`.C.a a a  +e ! .+.+.+! ! ",
"                        ++@+#+H       $+%+&+                *+=+-+;+>+A A b c d c 2.a a a a a a a a a a a a ",
"                      ,+'+)+J       J !+~+{+          ]+^+/+(+_+:+2.d c c c c c c c b a a a a a a a a a a a ",
"                      <+[+}+        |+1+w       *+2+3+4+5+6+7+8+b c c c c c c c c c b a a a a a a a a a a a ",
"                      9+0+a+      b+c+d+e+  f+g+h+i+j+B.k+l+d m+c c c c c c c c c c b a a a a a a a a a a a ",
"                      n+o+&   ; p+q+r+s+  t+u+v+w+l+b b B.m+c c c c c c c c c c c c b a a a a a a a a a a a ",
"                    H x+y+z+  A+B+C+D+E+2.F+G+2.b d c c c c c c c c c c c c c c c c c d d d d d d d d d d d ",
"                  D+H+I+J+b c K+K+K+c c c c c c c c c c c c c c c c c c c c c c c c c c c c c c c c c c c c ",
"              L+M+N+b b b c c c c c c c c c c c c c c c c c c c c c c c c c c c c c c c c c c c c c c c c c ",
"          O+B.P+b c c c c c c c c c c c c c c c c c c c c c c c c c c c c c c c c c c c c c c c c c c c c c ",
"    Q+! R+c c c c c b S+c c c c c c c c c c c c c c c c c c c c c c c c c c c c c c c c c c c c c c c c c c ",
"  T+U+B.c c c c B.V+W+X+Y+a c c c c c c c c c c c c c c c c c c c c c c c c c c c c c c c c c c c c c c c c ",
"Z+`+ @c b b g .@+@@@#@$@%@f c c c c c c c c c c c c c c c c c c c c c c c c c c c c c c c c c c c c c c c c ",
"  h d ! &@:+*@=@-@;@>@,@'@)@c c c c c c c c c c c c c c c c c c c c c c c c c c c c c c c c c c c c c c c c ",
"  f [.!@~@{@]@^@/@(@_@:@<@)@c c c c c c c c c c c c c c c c c c c c c c c c c c c c c c c c c c c c c c c c ",
"  [@}@|@1@2@3@4@5@6@7@8@9@0@c c c c c c c c c c c c c c c c c c c c c c c c c c c c c c c c c c c c c c c c ",
"]+a@b@c@d@e@f@g@h@i@j@k@l@m@c c c c c c c c c c c c c c c c c c c c c c c c c c c c c c c c c c c c c c c c ",
"  n@o@p@q@r@s@t@u@v@w@x@y@)@c c c c c c c c c c c c c c c c c c c c c c c c c c c c c c c c c c c c c c c c ",
"  z@A@B@C@D@E@F@G@H@I@J@K@L@c c c c c c c c c c c c c c c c c c c c c c c c c c c c c c c c c c c c c c c c ",
"    M@N@O@P@Q@R@S@T@U@V@W@X@c c c c c c c c c c c c c c c c c c c c c c c c c c c c c c c c c c c c c c c c ",
"    Y@Z@`@ #.#+#@###$#%#&#[.c c c c c c c c c c c c c c c c c c c c c c c c c c c c c c c c c c c c c c c c ",
"    *#=#-#;#>#,#'#)#!#~#{#]#c c c c c c c c c c c c c c c c c c c c c c c c c c c c c c c c c c c c c c c c ",
"    ^#/#(#_#:#<#[#}#|#1#2#3#c c c c c b b b b b b b b b b b b b b b b b b b b b b b b b b b b b b b b b b b ",
"    4#5#6#7#8#9#0#a#b#c#d#8+c c c c c                                                                       ",
"  e#f#g#h#i#j#k#l#m#n#o#p#q#c c c c c                                                                       ",
"    r#s#t#u#v#w#x#y#z#A#B#C#c c c c c                                                                       ",
"    2+D#E#F#G#H#I#J#K#L#M#e c c c c c                                                                       ",
"      N#O#P#Q#R#S#T#U#V#W#X#c c c c c                                                                       ",
"    e#Y#Z#`# $.$+$@$#$$$F.%$c c c c c                                                                       ",
"    &$*$=$-$;$>$,$'$S.)$!$c c c c c c                                                                       ",
"    ~${$]$^$/$($_$:$<$[$q#c c c c c c                                                                       ",
"    }$|$1$2$3$4$5$6$7$8$q#d c c c c c                                                                       ",
"    9$0$a$b$c$d$e$f$g$h$y m+c c c c c                                                                       ",
"      i$j$k$l$m$n$o$p$q$r$c c c c c c                                                                       ",
"      s$t$u$v$w$x$y$z$A$B$c c c c c c                                                                       ",
"      C$D$E$F$G$H$I$J$c c c c c c c c                                                                       ",
"    0@K$L$M$N$O$P$z$y c c c c c c c c                                                                       ",
"    [@Q$R$S$T$U$V$V$2.c c y c c c c c                                                                       ",
"    ~$W$X$Y$A.Z$`$6+[.c c y c c c c c                                                                       ",
"     %.%U+A B#`$y$q#m+c c c c c c c c                                                                       ",
"    Y +%m+@%B#B##%b c c c c c c c c c                                                                       ",
"    $%%%&%*%B#B#V A c c c c c c c c =%                                                                      ",
"  -%;%B.>%,%B#X$y b c c c c c c c b Y                                                                       ",
"  '%)%!%~%,%{%2.m+c c c c c c c c b Y                                                                       ",
"  ]%^%/%*%V$B$d c c c c c c c c c b Y                                                                       ",
"  (%z V ,%A._%U+c c c c c c c c c b Y                                                                       ",
"  :%S+<%[%b }%|%a c c c c c c c c b Y                                                                       ",
"1%0 2%3%4%Y 5%6%a c c c c c c c c b Y                                                                       ",
"  t+e c 7%8%9%A.a c c c c c c c c b Y                                                                       ",
"    0%O+a%b%c%d%r$c c c c c c c c b Y                                                                       ",
"    e%f%g%h%i%U$r$c c c c c c c c b Y                                                                       ",
"    j%k%l%}%m%n%r$c c c c c c c c b Y                                                                       ",
"    o%p%q%,%r%n%r$c c c c c c c c b Y                                                                       ",
"    [.s%t%u%v%n%r$c c c c c c c c b Y                                                                       ",
"    [.k%w%x%y%n%r$c c c c c c c c b Y                                                                       ",
"    [.k%w%x%y%n%r$c c c c c c c c z%Y                                                                       ",
"    [.k%w%x%y%n%r$c c c c c c c c c A%                                                                      ",
"    [.k%w%x%y%n%r$c c c c c c c c 2.B%                                                                      ",
"    [.H+w%x%y%n%r$c c c c c c c c c c                                                                       ",
"    d C%w%x%y%n%r$c c c c c c c c c c                                                                       ",
"    B%C%w%x%y%n%r$c c c c c c c c c c                                                                       ",
"    B%C%w%x%y%n%r$c c c c c c c c c c                                                                       ",
"    B%C%w%x%y%n%r$c c c c c c c c c c                                                                       ",
"    B%C%w%x%y%n%r$c c c c c c c c c c                                                                       ",
"    B%C%w%x%y%n%r$c c c c c c c c c c                                                                       ",
"    B%C%w%x%y%n%r$c c c c c c c c c c                                                                       ",
"    B%C%w%x%y%n%r$c c c c c c c c c c                                                                       ",
"    B%C%w%x%y%n%r$c c c c c c c c c c                                                                       ",
"    B%C%w%x%y%n%r$c c c c c c c c c c                                                                       ",
"    B%D%E%F%G%H%r$c c c c c c c c c c                                                                       ",
"    B%I%J%K%L%M%r$c c c c c c c c c c                                                                       ",
"    c N%O%P%Q%R%C.c c c c c c c c c c                                                                       ",
"    c S%T%U%V%W%X%c c c c c c c c c c                                                                       ",
"    c N%Y%Z%`%W%r$c c c c c c c c c c                                                                       ",
"    C#N% &Z%`%W%r$c c c c c c c c c c                                                                       ",
"    c N% &Z%`%W%r$c c c c c c c c c c                                                                       "};
